<?xml version="1.0" encoding="UTF-8" standalone="no"?>
<!DOCTYPE svg PUBLIC "-//W3C//DTD SVG 1.1//EN"
 "http://www.w3.org/Graphics/SVG/1.1/DTD/svg11.dtd">
<!-- Generated by graphviz version 2.36.0 (20140111.2315)
 -->
<!-- Title: Program Dependency Graph for &#39;main&#39; function Pages: 1 -->
<svg width="1301pt" height="955pt"
 viewBox="0.00 0.00 1301.00 955.00" xmlns="http://www.w3.org/2000/svg" xmlns:xlink="http://www.w3.org/1999/xlink">
<g id="graph0" class="graph" transform="scale(1 1) rotate(0) translate(4 951)">
<title>Program Dependency Graph for &#39;main&#39; function</title>
<polygon fill="white" stroke="none" points="-4,4 -4,-951 1297,-951 1297,4 -4,4"/>
<text text-anchor="middle" x="646.5" y="-7.8" font-family="Times,serif" font-size="14.00">Program Dependency Graph for &#39;main&#39; function</text>
<!-- Node0x1ddaa20 -->
<g id="node1" class="node"><title>Node0x1ddaa20</title>
<polygon fill="none" stroke="black" points="724.5,-834 724.5,-870 897.5,-870 897.5,-834 724.5,-834"/>
<text text-anchor="middle" x="811" y="-848.3" font-family="Times,serif" font-size="14.00">%retval = alloca i32, align 4</text>
</g>
<!-- Node0x1ddacf0 -->
<g id="node2" class="node"><title>Node0x1ddacf0</title>
<polygon fill="none" stroke="black" points="698,-744 698,-780 850,-780 850,-744 698,-744"/>
<text text-anchor="middle" x="774" y="-758.3" font-family="Times,serif" font-size="14.00">store i32 0, i32* %retval</text>
</g>
<!-- Node0x1ddaa20&#45;&gt;Node0x1ddacf0 -->
<g id="edge1" class="edge"><title>Node0x1ddaa20&#45;&gt;Node0x1ddacf0</title>
<path fill="none" stroke="black" stroke-dasharray="1,5" d="M803.69,-833.614C798.385,-820.998 791.115,-803.705 785.096,-789.391"/>
<polygon fill="black" stroke="black" points="788.271,-787.912 781.169,-780.05 781.818,-790.625 788.271,-787.912"/>
<text text-anchor="middle" x="831" y="-803.3" font-family="Times,serif" font-size="14.00">{DEF_USE}</text>
</g>
<!-- Node0x1ddad60 -->
<g id="node3" class="node"><title>Node0x1ddad60</title>
<polygon fill="none" stroke="black" points="-0.5,-910 -0.5,-946 272.5,-946 272.5,-910 -0.5,-910"/>
<text text-anchor="middle" x="136" y="-924.3" font-family="Times,serif" font-size="14.00">GLOBAL_VALUE:@k = global i32 5, align 4</text>
</g>
<!-- Node0x1ddae00 -->
<g id="node4" class="node"><title>Node0x1ddae00</title>
<polygon fill="none" stroke="black" points="189,-834 189,-870 359,-870 359,-834 189,-834"/>
<text text-anchor="middle" x="274" y="-848.3" font-family="Times,serif" font-size="14.00">%0 = load i32* @k, align 4</text>
</g>
<!-- Node0x1ddad60&#45;&gt;Node0x1ddae00 -->
<g id="edge2" class="edge"><title>Node0x1ddad60&#45;&gt;Node0x1ddae00</title>
<path fill="none" stroke="black" stroke-dasharray="1,5" d="M168.007,-909.837C187.427,-899.423 212.398,-886.033 233.225,-874.865"/>
<polygon fill="black" stroke="black" points="235.008,-877.88 242.167,-870.07 231.7,-871.711 235.008,-877.88"/>
</g>
<!-- Node0x1ddb350 -->
<g id="node5" class="node"><title>Node0x1ddb350</title>
<polygon fill="none" stroke="black" points="185.5,-744 185.5,-780 358.5,-780 358.5,-744 185.5,-744"/>
<text text-anchor="middle" x="272" y="-758.3" font-family="Times,serif" font-size="14.00">%cmp = icmp sgt i32 %0, 0</text>
</g>
<!-- Node0x1ddae00&#45;&gt;Node0x1ddb350 -->
<g id="edge3" class="edge"><title>Node0x1ddae00&#45;&gt;Node0x1ddb350</title>
<path fill="none" stroke="black" stroke-dasharray="1,5" d="M273.605,-833.614C273.324,-821.24 272.94,-804.369 272.619,-790.22"/>
<polygon fill="black" stroke="black" points="276.114,-789.968 272.388,-780.05 269.116,-790.127 276.114,-789.968"/>
<text text-anchor="middle" x="310" y="-803.3" font-family="Times,serif" font-size="14.00">{DEF_USE}</text>
</g>
<!-- Node0x1ddb3c0 -->
<g id="node17" class="node"><title>Node0x1ddb3c0</title>
<polygon fill="none" stroke="black" points="147.5,-654 147.5,-690 396.5,-690 396.5,-654 147.5,-654"/>
<text text-anchor="middle" x="272" y="-668.3" font-family="Times,serif" font-size="14.00">br i1 %cmp, label %if.then, label %if.else</text>
</g>
<!-- Node0x1ddb350&#45;&gt;Node0x1ddb3c0 -->
<g id="edge16" class="edge"><title>Node0x1ddb350&#45;&gt;Node0x1ddb3c0</title>
<path fill="none" stroke="black" stroke-dasharray="1,5" d="M272,-743.614C272,-731.24 272,-714.369 272,-700.22"/>
<polygon fill="black" stroke="black" points="275.5,-700.05 272,-690.05 268.5,-700.05 275.5,-700.05"/>
<text text-anchor="middle" x="308" y="-713.3" font-family="Times,serif" font-size="14.00">{DEF_USE}</text>
</g>
<!-- Node0x1ddae70 -->
<g id="node6" class="node"><title>Node0x1ddae70</title>
<polygon fill="none" stroke="black" points="466.5,-654 466.5,-690 629.5,-690 629.5,-654 466.5,-654"/>
<text text-anchor="middle" x="548" y="-668.3" font-family="Times,serif" font-size="14.00">%low = alloca i32, align 4</text>
</g>
<!-- Node0x1ddadd0 -->
<g id="node7" class="node"><title>Node0x1ddadd0</title>
<polygon fill="none" stroke="black" points="334.5,-564 334.5,-600 521.5,-600 521.5,-564 334.5,-564"/>
<text text-anchor="middle" x="428" y="-578.3" font-family="Times,serif" font-size="14.00">store i32 3, i32* %low, align 4</text>
</g>
<!-- Node0x1ddae70&#45;&gt;Node0x1ddadd0 -->
<g id="edge4" class="edge"><title>Node0x1ddae70&#45;&gt;Node0x1ddadd0</title>
<path fill="none" stroke="black" stroke-dasharray="1,5" d="M503.551,-653.828C492.699,-648.613 481.491,-642.297 472,-635 462.238,-627.494 453.138,-617.492 445.776,-608.265"/>
<polygon fill="black" stroke="black" points="448.39,-605.921 439.535,-600.104 442.83,-610.173 448.39,-605.921"/>
<text text-anchor="middle" x="508" y="-623.3" font-family="Times,serif" font-size="14.00">{DEF_USE}</text>
</g>
<!-- Node0x1ddaf20 -->
<g id="node8" class="node"><title>Node0x1ddaf20</title>
<polygon fill="none" stroke="black" points="516.5,-474 516.5,-510 699.5,-510 699.5,-474 516.5,-474"/>
<text text-anchor="middle" x="608" y="-488.3" font-family="Times,serif" font-size="14.00">%1 = load i32* %low, align 4</text>
</g>
<!-- Node0x1ddae70&#45;&gt;Node0x1ddaf20 -->
<g id="edge5" class="edge"><title>Node0x1ddae70&#45;&gt;Node0x1ddaf20</title>
<path fill="none" stroke="black" stroke-dasharray="1,5" d="M550.429,-653.782C553.796,-632.142 560.77,-594.069 572,-563 577.458,-547.901 585.488,-531.918 592.58,-519.042"/>
<polygon fill="black" stroke="black" points="595.662,-520.702 597.528,-510.273 589.566,-517.262 595.662,-520.702"/>
<text text-anchor="middle" x="608" y="-578.3" font-family="Times,serif" font-size="14.00">{DEF_USE}</text>
</g>
<!-- Node0x1ddadd0&#45;&gt;Node0x1ddaf20 -->
<g id="edge6" class="edge"><title>Node0x1ddadd0&#45;&gt;Node0x1ddaf20</title>
<path fill="none" stroke="black" stroke-dasharray="1,5" d="M439.297,-563.623C447.597,-552.184 459.859,-537.758 474,-529 484.08,-522.757 495.237,-517.585 506.684,-513.301"/>
<polygon fill="black" stroke="black" points="508.075,-516.522 516.351,-509.908 505.756,-509.917 508.075,-516.522"/>
<text text-anchor="middle" x="509" y="-533.3" font-family="Times,serif" font-size="14.00">{RAW} low</text>
</g>
<!-- Node0x1ddb0c0 -->
<g id="node9" class="node"><title>Node0x1ddb0c0</title>
<polygon fill="none" stroke="black" points="830.5,-384 830.5,-420 1009.5,-420 1009.5,-384 830.5,-384"/>
<text text-anchor="middle" x="920" y="-398.3" font-family="Times,serif" font-size="14.00">%add = add nsw i32 %1, %2</text>
</g>
<!-- Node0x1ddaf20&#45;&gt;Node0x1ddb0c0 -->
<g id="edge7" class="edge"><title>Node0x1ddaf20&#45;&gt;Node0x1ddb0c0</title>
<path fill="none" stroke="black" stroke-dasharray="1,5" d="M668.527,-473.928C720.41,-459.295 795.185,-438.204 849.707,-422.826"/>
<polygon fill="black" stroke="black" points="850.967,-426.107 859.642,-420.024 849.067,-419.37 850.967,-426.107"/>
<text text-anchor="middle" x="827" y="-443.3" font-family="Times,serif" font-size="14.00">{DEF_USE}</text>
</g>
<!-- Node0x1ddb680 -->
<g id="node20" class="node"><title>Node0x1ddb680</title>
<polygon fill="none" stroke="black" points="842.5,-294 842.5,-330 997.5,-330 997.5,-294 842.5,-294"/>
<text text-anchor="middle" x="920" y="-308.3" font-family="Times,serif" font-size="14.00">%div = sdiv i32 %add, 2</text>
</g>
<!-- Node0x1ddb0c0&#45;&gt;Node0x1ddb680 -->
<g id="edge21" class="edge"><title>Node0x1ddb0c0&#45;&gt;Node0x1ddb680</title>
<path fill="none" stroke="black" stroke-dasharray="1,5" d="M920,-383.614C920,-371.24 920,-354.369 920,-340.22"/>
<polygon fill="black" stroke="black" points="923.5,-340.05 920,-330.05 916.5,-340.05 923.5,-340.05"/>
<text text-anchor="middle" x="956" y="-353.3" font-family="Times,serif" font-size="14.00">{DEF_USE}</text>
</g>
<!-- Node0x1ddafc0 -->
<g id="node10" class="node"><title>Node0x1ddafc0</title>
<polygon fill="none" stroke="black" points="825.5,-654 825.5,-690 992.5,-690 992.5,-654 825.5,-654"/>
<text text-anchor="middle" x="909" y="-668.3" font-family="Times,serif" font-size="14.00">%high = alloca i32, align 4</text>
</g>
<!-- Node0x1ddb030 -->
<g id="node11" class="node"><title>Node0x1ddb030</title>
<polygon fill="none" stroke="black" points="686.5,-564 686.5,-600 883.5,-600 883.5,-564 686.5,-564"/>
<text text-anchor="middle" x="785" y="-578.3" font-family="Times,serif" font-size="14.00">store i32 42, i32* %high, align 4</text>
</g>
<!-- Node0x1ddafc0&#45;&gt;Node0x1ddb030 -->
<g id="edge8" class="edge"><title>Node0x1ddafc0&#45;&gt;Node0x1ddb030</title>
<path fill="none" stroke="black" stroke-dasharray="1,5" d="M866.58,-653.97C855.508,-648.649 843.91,-642.246 834,-635 823.361,-627.221 813.112,-616.942 804.763,-607.578"/>
<polygon fill="black" stroke="black" points="807.411,-605.289 798.229,-600.002 802.11,-609.861 807.411,-605.289"/>
<text text-anchor="middle" x="870" y="-623.3" font-family="Times,serif" font-size="14.00">{DEF_USE}</text>
</g>
<!-- Node0x1ddb130 -->
<g id="node12" class="node"><title>Node0x1ddb130</title>
<polygon fill="none" stroke="black" points="826.5,-474 826.5,-510 1013.5,-510 1013.5,-474 826.5,-474"/>
<text text-anchor="middle" x="920" y="-488.3" font-family="Times,serif" font-size="14.00">%2 = load i32* %high, align 4</text>
</g>
<!-- Node0x1ddafc0&#45;&gt;Node0x1ddb130 -->
<g id="edge9" class="edge"><title>Node0x1ddafc0&#45;&gt;Node0x1ddb130</title>
<path fill="none" stroke="black" stroke-dasharray="1,5" d="M910.055,-653.933C911.968,-622.966 916.026,-557.299 918.323,-520.129"/>
<polygon fill="black" stroke="black" points="921.825,-520.213 918.948,-510.016 914.838,-519.781 921.825,-520.213"/>
<text text-anchor="middle" x="951" y="-578.3" font-family="Times,serif" font-size="14.00">{DEF_USE}</text>
</g>
<!-- Node0x1ddb030&#45;&gt;Node0x1ddb130 -->
<g id="edge10" class="edge"><title>Node0x1ddb030&#45;&gt;Node0x1ddb130</title>
<path fill="none" stroke="black" stroke-dasharray="1,5" d="M797.371,-563.703C806.037,-552.591 818.455,-538.509 832,-529 839.921,-523.439 848.83,-518.537 857.859,-514.284"/>
<polygon fill="black" stroke="black" points="859.567,-517.354 867.275,-510.086 856.716,-510.961 859.567,-517.354"/>
<text text-anchor="middle" x="869" y="-533.3" font-family="Times,serif" font-size="14.00">{RAW} high</text>
</g>
<!-- Node0x1ddb130&#45;&gt;Node0x1ddb0c0 -->
<g id="edge11" class="edge"><title>Node0x1ddb130&#45;&gt;Node0x1ddb0c0</title>
<path fill="none" stroke="black" stroke-dasharray="1,5" d="M920,-473.614C920,-461.24 920,-444.369 920,-430.22"/>
<polygon fill="black" stroke="black" points="923.5,-430.05 920,-420.05 916.5,-430.05 923.5,-430.05"/>
<text text-anchor="middle" x="956" y="-443.3" font-family="Times,serif" font-size="14.00">{DEF_USE}</text>
</g>
<!-- Node0x1ddb1d0 -->
<g id="node13" class="node"><title>Node0x1ddb1d0</title>
<polygon fill="none" stroke="black" points="1063,-294 1063,-330 1227,-330 1227,-294 1063,-294"/>
<text text-anchor="middle" x="1145" y="-308.3" font-family="Times,serif" font-size="14.00">%mid = alloca i32, align 4</text>
</g>
<!-- Node0x1ddb240 -->
<g id="node14" class="node"><title>Node0x1ddb240</title>
<polygon fill="none" stroke="black" points="907.5,-204 907.5,-240 1118.5,-240 1118.5,-204 907.5,-204"/>
<text text-anchor="middle" x="1013" y="-218.3" font-family="Times,serif" font-size="14.00">store i32 %div, i32* %mid, align 4</text>
</g>
<!-- Node0x1ddb1d0&#45;&gt;Node0x1ddb240 -->
<g id="edge12" class="edge"><title>Node0x1ddb1d0&#45;&gt;Node0x1ddb240</title>
<path fill="none" stroke="black" stroke-dasharray="1,5" d="M1103.12,-293.961C1091.66,-288.563 1079.52,-282.123 1069,-275 1057.39,-267.133 1045.81,-256.894 1036.23,-247.584"/>
<polygon fill="black" stroke="black" points="1038.56,-244.963 1029,-240.38 1033.61,-249.92 1038.56,-244.963"/>
<text text-anchor="middle" x="1105" y="-263.3" font-family="Times,serif" font-size="14.00">{DEF_USE}</text>
</g>
<!-- Node0x1ddb2b0 -->
<g id="node15" class="node"><title>Node0x1ddb2b0</title>
<polygon fill="none" stroke="black" points="1071.5,-114 1071.5,-150 1256.5,-150 1256.5,-114 1071.5,-114"/>
<text text-anchor="middle" x="1164" y="-128.3" font-family="Times,serif" font-size="14.00">%3 = load i32* %mid, align 4</text>
</g>
<!-- Node0x1ddb1d0&#45;&gt;Node0x1ddb2b0 -->
<g id="edge13" class="edge"><title>Node0x1ddb1d0&#45;&gt;Node0x1ddb2b0</title>
<path fill="none" stroke="black" stroke-dasharray="1,5" d="M1146.82,-293.933C1150.13,-262.966 1157.14,-197.299 1161.1,-160.129"/>
<polygon fill="black" stroke="black" points="1164.6,-160.331 1162.18,-150.016 1157.64,-159.588 1164.6,-160.331"/>
<text text-anchor="middle" x="1192" y="-218.3" font-family="Times,serif" font-size="14.00">{DEF_USE}</text>
</g>
<!-- Node0x1ddb240&#45;&gt;Node0x1ddb2b0 -->
<g id="edge14" class="edge"><title>Node0x1ddb240&#45;&gt;Node0x1ddb2b0</title>
<path fill="none" stroke="black" stroke-dasharray="1,5" d="M1028.27,-203.705C1038.82,-192.594 1053.67,-178.513 1069,-169 1078.18,-163.305 1088.41,-158.274 1098.65,-153.916"/>
<polygon fill="black" stroke="black" points="1100.09,-157.109 1108.03,-150.102 1097.45,-150.624 1100.09,-157.109"/>
<text text-anchor="middle" x="1105" y="-173.3" font-family="Times,serif" font-size="14.00">{RAW} mid</text>
</g>
<!-- Node0x1ddb750 -->
<g id="node16" class="node"><title>Node0x1ddb750</title>
<polygon fill="none" stroke="black" points="1202,-24 1202,-60 1276,-60 1276,-24 1202,-24"/>
<text text-anchor="middle" x="1239" y="-38.3" font-family="Times,serif" font-size="14.00">ret i32 %3</text>
</g>
<!-- Node0x1ddb2b0&#45;&gt;Node0x1ddb750 -->
<g id="edge15" class="edge"><title>Node0x1ddb2b0&#45;&gt;Node0x1ddb750</title>
<path fill="none" stroke="black" stroke-dasharray="1,5" d="M1178.18,-113.537C1186.49,-103.383 1197.24,-90.3832 1207,-79 1210.17,-75.3062 1213.55,-71.4316 1216.88,-67.6494"/>
<polygon fill="black" stroke="black" points="1219.56,-69.9069 1223.57,-60.1029 1214.32,-65.2624 1219.56,-69.9069"/>
<text text-anchor="middle" x="1243" y="-83.3" font-family="Times,serif" font-size="14.00">{DEF_USE}</text>
</g>
<!-- Node0x1ddb3c0&#45;&gt;Node0x1ddadd0 -->
<g id="edge17" class="edge"><title>Node0x1ddb3c0&#45;&gt;Node0x1ddadd0</title>
<path fill="none" stroke="black" d="M302.449,-653.824C327.145,-639.893 362.124,-620.161 388.892,-605.061"/>
<polygon fill="black" stroke="black" points="390.638,-608.095 397.628,-600.133 387.199,-601.998 390.638,-608.095"/>
</g>
<!-- Node0x1ddb3c0&#45;&gt;Node0x1ddb030 -->
<g id="edge19" class="edge"><title>Node0x1ddb3c0&#45;&gt;Node0x1ddb030</title>
<path fill="none" stroke="black" d="M396.687,-657.052C444.187,-651.132 498.731,-643.602 548,-635 600.675,-625.804 659.381,-612.943 705.188,-602.312"/>
<polygon fill="black" stroke="black" points="706.112,-605.69 715.055,-600.01 704.522,-598.873 706.112,-605.69"/>
</g>
<!-- Node0x1ddb450 -->
<g id="node18" class="node"><title>Node0x1ddb450</title>
<polygon fill="none" stroke="black" points="173.5,-564 173.5,-600 278.5,-600 278.5,-564 173.5,-564"/>
<text text-anchor="middle" x="226" y="-578.3" font-family="Times,serif" font-size="14.00">br label %if.end</text>
</g>
<!-- Node0x1ddb3c0&#45;&gt;Node0x1ddb450 -->
<g id="edge18" class="edge"><title>Node0x1ddb3c0&#45;&gt;Node0x1ddb450</title>
<path fill="none" stroke="black" d="M262.912,-653.614C256.254,-640.876 247.104,-623.372 239.58,-608.979"/>
<polygon fill="black" stroke="black" points="242.647,-607.291 234.913,-600.05 236.444,-610.534 242.647,-607.291"/>
</g>
<!-- Node0x1ddb4c0 -->
<g id="node19" class="node"><title>Node0x1ddb4c0</title>
<polygon fill="none" stroke="black" points="50.5,-564 50.5,-600 155.5,-600 155.5,-564 50.5,-564"/>
<text text-anchor="middle" x="103" y="-578.3" font-family="Times,serif" font-size="14.00">br label %if.end</text>
</g>
<!-- Node0x1ddb3c0&#45;&gt;Node0x1ddb4c0 -->
<g id="edge20" class="edge"><title>Node0x1ddb3c0&#45;&gt;Node0x1ddb4c0</title>
<path fill="none" stroke="black" d="M239.014,-653.824C212.144,-639.832 174.036,-619.989 144.989,-604.864"/>
<polygon fill="black" stroke="black" points="146.389,-601.647 135.903,-600.133 143.156,-607.856 146.389,-601.647"/>
</g>
<!-- Node0x1ddb680&#45;&gt;Node0x1ddb240 -->
<g id="edge22" class="edge"><title>Node0x1ddb680&#45;&gt;Node0x1ddb240</title>
<path fill="none" stroke="black" stroke-dasharray="1,5" d="M926.602,-293.999C931.513,-283.012 939.078,-268.959 949,-259 953.957,-254.025 959.745,-249.523 965.776,-245.523"/>
<polygon fill="black" stroke="black" points="968.034,-248.243 974.718,-240.022 964.367,-242.28 968.034,-248.243"/>
<text text-anchor="middle" x="985" y="-263.3" font-family="Times,serif" font-size="14.00">{DEF_USE}</text>
</g>
<!-- Node0x1ddb7e0 -->
<g id="node21" class="node"><title>Node0x1ddb7e0</title>
<polygon fill="none" stroke="black" points="748,-910 748,-946 874,-946 874,-910 748,-910"/>
<text text-anchor="middle" x="811" y="-924.3" font-family="Times,serif" font-size="14.00">&lt;&lt;ENTRY&gt;&gt; main</text>
</g>
<!-- Node0x1ddb7e0&#45;&gt;Node0x1ddaa20 -->
<g id="edge23" class="edge"><title>Node0x1ddb7e0&#45;&gt;Node0x1ddaa20</title>
<path fill="none" stroke="black" d="M811,-909.837C811,-901.058 811,-890.163 811,-880.267"/>
<polygon fill="black" stroke="black" points="814.5,-880.07 811,-870.07 807.5,-880.07 814.5,-880.07"/>
</g>
<!-- Node0x1ddb7e0&#45;&gt;Node0x1ddacf0 -->
<g id="edge27" class="edge"><title>Node0x1ddb7e0&#45;&gt;Node0x1ddacf0</title>
<path fill="none" stroke="black" d="M760.986,-909.995C743.225,-901.265 725.139,-888.652 715,-871 698.651,-842.537 723.174,-809.34 745.401,-787.342"/>
<polygon fill="black" stroke="black" points="747.942,-789.756 752.788,-780.335 743.124,-784.678 747.942,-789.756"/>
</g>
<!-- Node0x1ddb7e0&#45;&gt;Node0x1ddae00 -->
<g id="edge28" class="edge"><title>Node0x1ddb7e0&#45;&gt;Node0x1ddae00</title>
<path fill="none" stroke="black" d="M747.769,-927.399C661.85,-926.679 503.922,-920.862 373,-891 355.295,-886.962 336.535,-880.394 320.163,-873.845"/>
<polygon fill="black" stroke="black" points="321.405,-870.571 310.825,-870.011 318.746,-877.047 321.405,-870.571"/>
</g>
<!-- Node0x1ddb7e0&#45;&gt;Node0x1ddb350 -->
<g id="edge29" class="edge"><title>Node0x1ddb7e0&#45;&gt;Node0x1ddb350</title>
<path fill="none" stroke="black" d="M747.828,-926.17C595.444,-923.508 217.434,-912.724 180,-871 153.919,-841.93 195.441,-807.438 230.827,-785.393"/>
<polygon fill="black" stroke="black" points="232.895,-788.233 239.646,-780.068 229.277,-782.241 232.895,-788.233"/>
</g>
<!-- Node0x1ddb7e0&#45;&gt;Node0x1ddae70 -->
<g id="edge24" class="edge"><title>Node0x1ddb7e0&#45;&gt;Node0x1ddae70</title>
<path fill="none" stroke="black" d="M747.811,-919.414C707.492,-913.453 659.917,-903.981 644,-891 583.496,-841.656 560.021,-746.528 551.865,-699.982"/>
<polygon fill="black" stroke="black" points="555.305,-699.333 550.228,-690.034 548.398,-700.47 555.305,-699.333"/>
</g>
<!-- Node0x1ddb7e0&#45;&gt;Node0x1ddaf20 -->
<g id="edge31" class="edge"><title>Node0x1ddb7e0&#45;&gt;Node0x1ddaf20</title>
<path fill="none" stroke="black" d="M747.886,-921.137C705.74,-913.339 658,-895.194 658,-853 658,-853 658,-853 658,-581 658,-557.657 644.536,-534.844 631.582,-518.296"/>
<polygon fill="black" stroke="black" points="633.996,-515.724 624.928,-510.245 628.6,-520.183 633.996,-515.724"/>
</g>
<!-- Node0x1ddb7e0&#45;&gt;Node0x1ddb0c0 -->
<g id="edge33" class="edge"><title>Node0x1ddb7e0&#45;&gt;Node0x1ddb0c0</title>
<path fill="none" stroke="black" d="M874.288,-920.642C947.471,-911.493 1058,-891.33 1058,-853 1058,-853 1058,-853 1058,-491 1058,-458.296 1030.11,-437.211 999.401,-423.909"/>
<polygon fill="black" stroke="black" points="1000.39,-420.534 989.809,-420.026 997.765,-427.022 1000.39,-420.534"/>
</g>
<!-- Node0x1ddb7e0&#45;&gt;Node0x1ddafc0 -->
<g id="edge25" class="edge"><title>Node0x1ddb7e0&#45;&gt;Node0x1ddafc0</title>
<path fill="none" stroke="black" d="M860.119,-909.922C877.759,-901.161 895.799,-888.544 906,-871 937.329,-817.117 925.788,-740.248 916.386,-699.975"/>
<polygon fill="black" stroke="black" points="919.742,-698.968 913.948,-690.097 912.946,-700.645 919.742,-698.968"/>
</g>
<!-- Node0x1ddb7e0&#45;&gt;Node0x1ddb130 -->
<g id="edge32" class="edge"><title>Node0x1ddb7e0&#45;&gt;Node0x1ddb130</title>
<path fill="none" stroke="black" d="M874.274,-917.113C935.788,-905.662 1020,-884.275 1020,-853 1020,-853 1020,-853 1020,-581 1020,-551.521 995.206,-529.581 970.31,-514.98"/>
<polygon fill="black" stroke="black" points="971.984,-511.906 961.54,-510.122 968.592,-518.03 971.984,-511.906"/>
</g>
<!-- Node0x1ddb7e0&#45;&gt;Node0x1ddb1d0 -->
<g id="edge26" class="edge"><title>Node0x1ddb7e0&#45;&gt;Node0x1ddb1d0</title>
<path fill="none" stroke="black" d="M874.228,-924.594C949.562,-920.834 1070.24,-911.718 1110,-891 1130.1,-880.528 1144,-875.662 1144,-853 1144,-853 1144,-853 1144,-401 1144,-380.629 1144.27,-357.607 1144.53,-340.222"/>
<polygon fill="black" stroke="black" points="1148.03,-340.253 1144.69,-330.199 1141.03,-340.142 1148.03,-340.253"/>
</g>
<!-- Node0x1ddb7e0&#45;&gt;Node0x1ddb240 -->
<g id="edge35" class="edge"><title>Node0x1ddb7e0&#45;&gt;Node0x1ddb240</title>
<path fill="none" stroke="black" d="M874.251,-923.248C958.214,-916.501 1096,-898.497 1096,-853 1096,-853 1096,-853 1096,-536 1096,-478.768 1043.5,-314.58 1022.01,-249.772"/>
<polygon fill="black" stroke="black" points="1025.32,-248.637 1018.84,-240.256 1018.68,-250.85 1025.32,-248.637"/>
</g>
<!-- Node0x1ddb7e0&#45;&gt;Node0x1ddb2b0 -->
<g id="edge36" class="edge"><title>Node0x1ddb7e0&#45;&gt;Node0x1ddb2b0</title>
<path fill="none" stroke="black" d="M874.143,-922.92C996.723,-914.15 1255,-891.145 1255,-853 1255,-853 1255,-853 1255,-221 1255,-192.548 1231.73,-170.368 1208.72,-155.392"/>
<polygon fill="black" stroke="black" points="1210.32,-152.265 1199.97,-150.007 1206.65,-158.227 1210.32,-152.265"/>
</g>
<!-- Node0x1ddb7e0&#45;&gt;Node0x1ddb750 -->
<g id="edge37" class="edge"><title>Node0x1ddb7e0&#45;&gt;Node0x1ddb750</title>
<path fill="none" stroke="black" d="M874.013,-923.779C1004.66,-916.256 1293,-894.907 1293,-853 1293,-853 1293,-853 1293,-131 1293,-107.066 1291.52,-99.3983 1279,-79 1276.45,-74.8396 1273.27,-70.8777 1269.83,-67.2068"/>
<polygon fill="black" stroke="black" points="1272.13,-64.5609 1262.51,-60.1098 1267.25,-69.5851 1272.13,-64.5609"/>
</g>
<!-- Node0x1ddb7e0&#45;&gt;Node0x1ddb3c0 -->
<g id="edge30" class="edge"><title>Node0x1ddb7e0&#45;&gt;Node0x1ddb3c0</title>
<path fill="none" stroke="black" d="M747.964,-925.166C641.825,-921.517 436.463,-911.836 411,-891 344.754,-836.792 410.527,-767.459 348,-709 342.301,-703.672 335.67,-698.999 328.744,-694.941"/>
<polygon fill="black" stroke="black" points="330.321,-691.815 319.861,-690.126 326.985,-697.969 330.321,-691.815"/>
</g>
<!-- Node0x1ddb7e0&#45;&gt;Node0x1ddb680 -->
<g id="edge34" class="edge"><title>Node0x1ddb7e0&#45;&gt;Node0x1ddb680</title>
<path fill="none" stroke="black" d="M747.692,-927.708C638.185,-927.211 425,-917.908 425,-853 425,-853 425,-853 425,-716 425,-686.623 422.8,-676.37 405,-653 379.305,-619.264 350.201,-635.106 325,-601 307.695,-577.579 307,-567.12 307,-538 307,-538 307,-538 307,-401 307,-348.582 662.731,-324.959 832.214,-316.678"/>
<polygon fill="black" stroke="black" points="832.543,-320.167 842.363,-316.19 832.206,-313.175 832.543,-320.167"/>
</g>
</g>
</svg>
