<?xml version="1.0" encoding="UTF-8" standalone="no"?>
<!DOCTYPE svg PUBLIC "-//W3C//DTD SVG 1.1//EN"
 "http://www.w3.org/Graphics/SVG/1.1/DTD/svg11.dtd">
<!-- Generated by graphviz version 2.36.0 (20140111.2315)
 -->
<!-- Title: Program Dependency Graph for &#39;main&#39; function Pages: 1 -->
<svg width="2399pt" height="1183pt"
 viewBox="0.00 0.00 2399.00 1183.00" xmlns="http://www.w3.org/2000/svg" xmlns:xlink="http://www.w3.org/1999/xlink">
<g id="graph0" class="graph" transform="scale(1 1) rotate(0) translate(4 1179)">
<title>Program Dependency Graph for &#39;main&#39; function</title>
<polygon fill="white" stroke="none" points="-4,4 -4,-1179 2395,-1179 2395,4 -4,4"/>
<text text-anchor="middle" x="1195.5" y="-7.8" font-family="Times,serif" font-size="14.00">Program Dependency Graph for &#39;main&#39; function</text>
<!-- Node0x2220640 -->
<g id="node1" class="node"><title>Node0x2220640</title>
<polygon fill="none" stroke="black" points="122,-1138 122,-1174 324,-1174 324,-1138 122,-1138"/>
<text text-anchor="middle" x="223" y="-1152.3" font-family="Times,serif" font-size="14.00">%num1.addr = alloca i32, align 4</text>
</g>
<!-- Node0x22206b0 -->
<g id="node2" class="node"><title>Node0x22206b0</title>
<polygon fill="none" stroke="black" points="313.5,-1048 313.5,-1084 576.5,-1084 576.5,-1048 313.5,-1048"/>
<text text-anchor="middle" x="445" y="-1062.3" font-family="Times,serif" font-size="14.00">store i32 %num1, i32* %num1.addr, align 4</text>
</g>
<!-- Node0x2220640&#45;&gt;Node0x22206b0 -->
<g id="edge1" class="edge"><title>Node0x2220640&#45;&gt;Node0x22206b0</title>
<path fill="none" stroke="black" stroke-dasharray="1,5" d="M266.067,-1137.93C302.218,-1123.6 353.989,-1103.08 392.551,-1087.79"/>
<polygon fill="black" stroke="black" points="394.046,-1090.96 402.053,-1084.02 391.467,-1084.46 394.046,-1090.96"/>
<text text-anchor="middle" x="390" y="-1107.3" font-family="Times,serif" font-size="14.00">{DEF_USE}</text>
</g>
<!-- Node0x2220720 -->
<g id="node3" class="node"><title>Node0x2220720</title>
<polygon fill="none" stroke="black" points="185,-958 185,-994 407,-994 407,-958 185,-958"/>
<text text-anchor="middle" x="296" y="-972.3" font-family="Times,serif" font-size="14.00">%0 = load i32* %num1.addr, align 4</text>
</g>
<!-- Node0x2220640&#45;&gt;Node0x2220720 -->
<g id="edge2" class="edge"><title>Node0x2220640&#45;&gt;Node0x2220720</title>
<path fill="none" stroke="black" stroke-dasharray="1,5" d="M221.115,-1137.71C219.44,-1115.66 218.969,-1076.83 232,-1047 239.715,-1029.34 253.752,-1013.2 266.717,-1000.88"/>
<polygon fill="black" stroke="black" points="269.14,-1003.4 274.172,-994.08 264.424,-998.231 269.14,-1003.4"/>
<text text-anchor="middle" x="268" y="-1062.3" font-family="Times,serif" font-size="14.00">{DEF_USE}</text>
</g>
<!-- Node0x22206b0&#45;&gt;Node0x2220720 -->
<g id="edge3" class="edge"><title>Node0x22206b0&#45;&gt;Node0x2220720</title>
<path fill="none" stroke="black" stroke-dasharray="1,5" d="M415.918,-1047.82C392.432,-1033.95 359.21,-1014.33 333.687,-999.258"/>
<polygon fill="black" stroke="black" points="335.399,-996.205 325.009,-994.133 331.84,-1002.23 335.399,-996.205"/>
<text text-anchor="middle" x="438.5" y="-1017.3" font-family="Times,serif" font-size="14.00">{RAW} num1.addr</text>
</g>
<!-- Node0x2220940 -->
<g id="node4" class="node"><title>Node0x2220940</title>
<polygon fill="none" stroke="black" points="277.5,-868 277.5,-904 456.5,-904 456.5,-868 277.5,-868"/>
<text text-anchor="middle" x="367" y="-882.3" font-family="Times,serif" font-size="14.00">%add = add nsw i32 %0, %1</text>
</g>
<!-- Node0x2220720&#45;&gt;Node0x2220940 -->
<g id="edge4" class="edge"><title>Node0x2220720&#45;&gt;Node0x2220940</title>
<path fill="none" stroke="black" stroke-dasharray="1,5" d="M310.027,-957.614C320.5,-944.634 334.966,-926.704 346.701,-912.16"/>
<polygon fill="black" stroke="black" points="349.688,-914.031 353.243,-904.05 344.24,-909.635 349.688,-914.031"/>
<text text-anchor="middle" x="374" y="-927.3" font-family="Times,serif" font-size="14.00">{DEF_USE}</text>
</g>
<!-- Node0x2220bd0 -->
<g id="node5" class="node"><title>Node0x2220bd0</title>
<polygon fill="none" stroke="black" points="536.5,-266 536.5,-302 665.5,-302 665.5,-266 536.5,-266"/>
<text text-anchor="middle" x="601" y="-280.3" font-family="Times,serif" font-size="14.00">FORMAL_OUT:i32</text>
</g>
<!-- Node0x2220720&#45;&gt;Node0x2220bd0 -->
<g id="edge5" class="edge"><title>Node0x2220720&#45;&gt;Node0x2220bd0</title>
<path fill="none" stroke="black" stroke-dasharray="1,5" d="M376.515,-957.934C408.053,-947.493 442.091,-930.951 465,-905 532.086,-829.006 514.793,-787.89 567,-701 581.608,-676.687 592.472,-674.916 604,-649 615.658,-622.793 618,-614.683 618,-586 618,-586 618,-586 618,-359 618,-343.138 614.244,-325.839 610.263,-311.958"/>
<polygon fill="black" stroke="black" points="613.514,-310.622 607.234,-302.089 606.823,-312.676 613.514,-310.622"/>
</g>
<!-- Node0x22250b0 -->
<g id="node6" class="node"><title>Node0x22250b0</title>
<polygon fill="none" stroke="black" points="11.5,-266 11.5,-302 140.5,-302 140.5,-266 11.5,-266"/>
<text text-anchor="middle" x="76" y="-280.3" font-family="Times,serif" font-size="14.00">FORMAL_OUT:i32</text>
</g>
<!-- Node0x2220720&#45;&gt;Node0x22250b0 -->
<g id="edge6" class="edge"><title>Node0x2220720&#45;&gt;Node0x22250b0</title>
<path fill="none" stroke="black" stroke-dasharray="1,5" d="M275.186,-957.849C207.81,-900.272 0,-705.688 0,-496 0,-496 0,-496 0,-359 0,-337.476 15.8408,-320.182 33.0584,-307.741"/>
<polygon fill="black" stroke="black" points="35.2121,-310.51 41.5579,-302.026 31.3063,-304.701 35.2121,-310.51"/>
</g>
<!-- Node0x22209f0 -->
<g id="node10" class="node"><title>Node0x22209f0</title>
<polygon fill="none" stroke="black" points="323.5,-778 323.5,-814 410.5,-814 410.5,-778 323.5,-778"/>
<text text-anchor="middle" x="367" y="-792.3" font-family="Times,serif" font-size="14.00">ret i32 %add</text>
</g>
<!-- Node0x2220940&#45;&gt;Node0x22209f0 -->
<g id="edge13" class="edge"><title>Node0x2220940&#45;&gt;Node0x22209f0</title>
<path fill="none" stroke="black" stroke-dasharray="1,5" d="M367,-867.614C367,-855.24 367,-838.369 367,-824.22"/>
<polygon fill="black" stroke="black" points="370.5,-824.05 367,-814.05 363.5,-824.05 370.5,-824.05"/>
<text text-anchor="middle" x="403" y="-837.3" font-family="Times,serif" font-size="14.00">{DEF_USE}</text>
</g>
<!-- Node0x22258a0 -->
<g id="node29" class="node"><title>Node0x22258a0</title>
<polygon fill="none" stroke="black" points="823.5,-190 823.5,-226 950.5,-226 950.5,-190 823.5,-190"/>
<text text-anchor="middle" x="887" y="-204.3" font-family="Times,serif" font-size="14.00">ACTUAL_OUT:i32</text>
</g>
<!-- Node0x2220bd0&#45;&gt;Node0x22258a0 -->
<g id="edge43" class="edge"><title>Node0x2220bd0&#45;&gt;Node0x22258a0</title>
<path fill="none" stroke="black" stroke-dasharray="5,2" d="M665.541,-266.301C709.438,-254.942 767.623,-239.888 813.337,-228.06"/>
<polygon fill="black" stroke="black" points="814.383,-231.404 823.187,-225.511 812.629,-224.628 814.383,-231.404"/>
</g>
<!-- Node0x22259a0 -->
<g id="node30" class="node"><title>Node0x22259a0</title>
<polygon fill="none" stroke="black" points="654.5,-190 654.5,-226 781.5,-226 781.5,-190 654.5,-190"/>
<text text-anchor="middle" x="718" y="-204.3" font-family="Times,serif" font-size="14.00">ACTUAL_OUT:i32</text>
</g>
<!-- Node0x22250b0&#45;&gt;Node0x22259a0 -->
<g id="edge47" class="edge"><title>Node0x22250b0&#45;&gt;Node0x22259a0</title>
<path fill="none" stroke="black" stroke-dasharray="5,2" d="M140.794,-275.532C260.912,-261.686 517.423,-232.119 644.094,-217.519"/>
<polygon fill="black" stroke="black" points="644.561,-220.988 654.094,-216.366 643.759,-214.034 644.561,-220.988"/>
</g>
<!-- Node0x22207f0 -->
<g id="node7" class="node"><title>Node0x22207f0</title>
<polygon fill="none" stroke="black" points="200,-522 200,-558 402,-558 402,-522 200,-522"/>
<text text-anchor="middle" x="301" y="-536.3" font-family="Times,serif" font-size="14.00">%num2.addr = alloca i32, align 4</text>
</g>
<!-- Node0x2220860 -->
<g id="node8" class="node"><title>Node0x2220860</title>
<polygon fill="none" stroke="black" points="212.5,-432 212.5,-468 475.5,-468 475.5,-432 212.5,-432"/>
<text text-anchor="middle" x="344" y="-446.3" font-family="Times,serif" font-size="14.00">store i32 %num2, i32* %num2.addr, align 4</text>
</g>
<!-- Node0x22207f0&#45;&gt;Node0x2220860 -->
<g id="edge7" class="edge"><title>Node0x22207f0&#45;&gt;Node0x2220860</title>
<path fill="none" stroke="black" stroke-dasharray="1,5" d="M309.495,-521.614C315.66,-508.998 324.11,-491.705 331.105,-477.391"/>
<polygon fill="black" stroke="black" points="334.423,-478.572 335.669,-468.05 328.134,-475.499 334.423,-478.572"/>
<text text-anchor="middle" x="363" y="-491.3" font-family="Times,serif" font-size="14.00">{DEF_USE}</text>
</g>
<!-- Node0x2220790 -->
<g id="node9" class="node"><title>Node0x2220790</title>
<polygon fill="none" stroke="black" points="272,-342 272,-378 494,-378 494,-342 272,-342"/>
<text text-anchor="middle" x="383" y="-356.3" font-family="Times,serif" font-size="14.00">%1 = load i32* %num2.addr, align 4</text>
</g>
<!-- Node0x22207f0&#45;&gt;Node0x2220790 -->
<g id="edge8" class="edge"><title>Node0x22207f0&#45;&gt;Node0x2220790</title>
<path fill="none" stroke="black" stroke-dasharray="1,5" d="M227.181,-521.981C167.442,-504.639 98.2036,-474.148 131,-431 147.881,-408.791 206.611,-391.775 263.128,-380.084"/>
<polygon fill="black" stroke="black" points="264.165,-383.445 273.275,-378.036 262.78,-376.584 264.165,-383.445"/>
<text text-anchor="middle" x="167" y="-446.3" font-family="Times,serif" font-size="14.00">{DEF_USE}</text>
</g>
<!-- Node0x2220860&#45;&gt;Node0x2220790 -->
<g id="edge9" class="edge"><title>Node0x2220860&#45;&gt;Node0x2220790</title>
<path fill="none" stroke="black" stroke-dasharray="1,5" d="M351.705,-431.614C357.296,-418.998 364.96,-401.705 371.304,-387.391"/>
<polygon fill="black" stroke="black" points="374.592,-388.611 375.444,-378.05 368.192,-385.775 374.592,-388.611"/>
<text text-anchor="middle" x="421.5" y="-401.3" font-family="Times,serif" font-size="14.00">{RAW} num2.addr</text>
</g>
<!-- Node0x2220790&#45;&gt;Node0x2220940 -->
<g id="edge10" class="edge"><title>Node0x2220790&#45;&gt;Node0x2220940</title>
<path fill="none" stroke="black" stroke-dasharray="1,5" d="M464.303,-378.111C476.661,-382.941 488.704,-389.115 499,-397 559.481,-443.32 571.413,-484.609 555,-559 549.556,-583.677 541.541,-587.599 532,-611 489.363,-715.574 519.41,-765.843 443,-849 438.11,-854.322 432.27,-858.931 426.03,-862.905"/>
<polygon fill="black" stroke="black" points="424.23,-859.903 417.324,-867.937 427.733,-865.963 424.23,-859.903"/>
<text text-anchor="middle" x="568" y="-626.3" font-family="Times,serif" font-size="14.00">{DEF_USE}</text>
</g>
<!-- Node0x2220790&#45;&gt;Node0x2220bd0 -->
<g id="edge11" class="edge"><title>Node0x2220790&#45;&gt;Node0x2220bd0</title>
<path fill="none" stroke="black" stroke-dasharray="1,5" d="M433.287,-341.93C465.332,-331.052 507.027,-316.899 540.827,-305.426"/>
<polygon fill="black" stroke="black" points="542.244,-308.641 550.588,-302.112 539.994,-302.012 542.244,-308.641"/>
</g>
<!-- Node0x2220790&#45;&gt;Node0x22250b0 -->
<g id="edge12" class="edge"><title>Node0x2220790&#45;&gt;Node0x22250b0</title>
<path fill="none" stroke="black" stroke-dasharray="1,5" d="M312.183,-341.93C263.808,-330.27 199.818,-314.845 150.647,-302.993"/>
<polygon fill="black" stroke="black" points="151.247,-299.538 140.705,-300.597 149.607,-306.343 151.247,-299.538"/>
</g>
<!-- Node0x2225750 -->
<g id="node11" class="node"><title>Node0x2225750</title>
<polygon fill="none" stroke="black" points="576,-702 576,-738 812,-738 812,-702 576,-702"/>
<text text-anchor="middle" x="694" y="-716.3" font-family="Times,serif" font-size="14.00">%call1 = call i32 @sum(i32 10, i32 13)</text>
</g>
<!-- Node0x22209f0&#45;&gt;Node0x2225750 -->
<g id="edge14" class="edge"><title>Node0x22209f0&#45;&gt;Node0x2225750</title>
<path fill="none" stroke="black" stroke-dasharray="1,5" d="M410.761,-785.097C461.146,-773.695 545.112,-754.693 608.572,-740.332"/>
<polygon fill="black" stroke="black" points="609.592,-743.69 618.573,-738.069 608.047,-736.863 609.592,-743.69"/>
</g>
<!-- Node0x2220a80 -->
<g id="node12" class="node"><title>Node0x2220a80</title>
<polygon fill="none" stroke="black" points="228,-612 228,-648 350,-648 350,-612 228,-612"/>
<text text-anchor="middle" x="289" y="-626.3" font-family="Times,serif" font-size="14.00">&lt;&lt;ENTRY&gt;&gt; sum</text>
</g>
<!-- Node0x2225750&#45;&gt;Node0x2220a80 -->
<g id="edge48" class="edge"><title>Node0x2225750&#45;&gt;Node0x2220a80</title>
<path fill="none" stroke="black" d="M611.717,-701.959C586.083,-696.317 557.782,-689.746 532,-683 508.196,-676.771 503.007,-672.395 479,-667 429.362,-655.846 413.62,-659.266 360.387,-649.14"/>
<polygon fill="black" stroke="black" points="360.866,-645.667 350.377,-647.163 359.51,-652.534 360.866,-645.667"/>
</g>
<!-- Node0x2220b50 -->
<g id="node26" class="node"><title>Node0x2220b50</title>
<polygon fill="none" stroke="black" points="892,-612 892,-648 1110,-648 1110,-612 892,-612"/>
<text text-anchor="middle" x="1001" y="-626.3" font-family="Times,serif" font-size="14.00">store i32 %call1, i32* %op2, align 4</text>
</g>
<!-- Node0x2225750&#45;&gt;Node0x2220b50 -->
<g id="edge53" class="edge"><title>Node0x2225750&#45;&gt;Node0x2220b50</title>
<path fill="none" stroke="black" stroke-dasharray="1,5" d="M759.694,-701.947C781.762,-696.095 806.485,-689.403 829,-683 864.623,-672.868 904.196,-660.951 936.395,-651.082"/>
<polygon fill="black" stroke="black" points="937.606,-654.372 946.138,-648.09 935.551,-647.68 937.606,-654.372"/>
<text text-anchor="middle" x="918" y="-671.3" font-family="Times,serif" font-size="14.00">{DEF_USE}</text>
</g>
<!-- Node0x2225750&#45;&gt;Node0x22258a0 -->
<g id="edge50" class="edge"><title>Node0x2225750&#45;&gt;Node0x22258a0</title>
<path fill="none" stroke="black" stroke-dasharray="5,2" d="M748.725,-701.848C798.421,-682.458 864,-645.582 864,-586 864,-586 864,-586 864,-283 864,-266.761 869.113,-249.385 874.518,-235.553"/>
<polygon fill="black" stroke="black" points="877.81,-236.752 878.436,-226.175 871.351,-234.053 877.81,-236.752"/>
</g>
<!-- Node0x2225750&#45;&gt;Node0x22259a0 -->
<g id="edge52" class="edge"><title>Node0x2225750&#45;&gt;Node0x22259a0</title>
<path fill="none" stroke="black" stroke-dasharray="5,2" d="M687.93,-701.715C683.348,-687.706 677.446,-667.349 675,-649 667.483,-592.61 670.348,-577.698 675,-521 679.236,-469.37 694,-457.804 694,-406 694,-406 694,-406 694,-283 694,-266.698 699.335,-249.318 704.975,-235.5"/>
<polygon fill="black" stroke="black" points="708.27,-236.7 709.063,-226.135 701.855,-233.899 708.27,-236.7"/>
</g>
<!-- Node0x2225800 -->
<g id="node31" class="node"><title>Node0x2225800</title>
<polygon fill="none" stroke="black" points="684.5,-612 684.5,-648 797.5,-648 797.5,-612 684.5,-612"/>
<text text-anchor="middle" x="741" y="-626.3" font-family="Times,serif" font-size="14.00">ACTUAL_IN:i32</text>
</g>
<!-- Node0x2225750&#45;&gt;Node0x2225800 -->
<g id="edge49" class="edge"><title>Node0x2225750&#45;&gt;Node0x2225800</title>
<path fill="none" stroke="black" stroke-dasharray="5,2" d="M703.286,-701.614C710.089,-688.876 719.438,-671.372 727.125,-656.979"/>
<polygon fill="black" stroke="black" points="730.27,-658.52 731.894,-648.05 724.095,-655.222 730.27,-658.52"/>
</g>
<!-- Node0x2225870 -->
<g id="node32" class="node"><title>Node0x2225870</title>
<polygon fill="none" stroke="black" points="368.5,-612 368.5,-648 481.5,-648 481.5,-612 368.5,-612"/>
<text text-anchor="middle" x="425" y="-626.3" font-family="Times,serif" font-size="14.00">ACTUAL_IN:i32</text>
</g>
<!-- Node0x2225750&#45;&gt;Node0x2225870 -->
<g id="edge51" class="edge"><title>Node0x2225750&#45;&gt;Node0x2225870</title>
<path fill="none" stroke="black" stroke-dasharray="5,2" d="M641.815,-701.928C597.454,-687.416 533.681,-666.554 486.779,-651.21"/>
<polygon fill="black" stroke="black" points="487.632,-647.807 477.04,-648.024 485.456,-654.46 487.632,-647.807"/>
</g>
<!-- Node0x2220a80&#45;&gt;Node0x2220640 -->
<g id="edge15" class="edge"><title>Node0x2220a80&#45;&gt;Node0x2220640</title>
<path fill="none" stroke="black" d="M266.108,-648.071C213.018,-689.809 86,-802.945 86,-930 86,-1067 86,-1067 86,-1067 86,-1099.66 113.91,-1120.77 144.535,-1134.1"/>
<polygon fill="black" stroke="black" points="143.517,-1137.46 154.099,-1137.99 146.154,-1130.98 143.517,-1137.46"/>
</g>
<!-- Node0x2220a80&#45;&gt;Node0x22206b0 -->
<g id="edge17" class="edge"><title>Node0x2220a80&#45;&gt;Node0x22206b0</title>
<path fill="none" stroke="black" d="M305.944,-648.015C311.746,-653.95 318.228,-660.702 324,-667 397.482,-747.18 428.307,-764.618 465,-867 578.623,-1184.04 513.893,-996.758 497,-1029 494.578,-1033.62 491.263,-1037.77 487.469,-1041.46"/>
<polygon fill="black" stroke="black" points="485.098,-1038.88 479.694,-1047.99 489.602,-1044.24 485.098,-1038.88"/>
</g>
<!-- Node0x2220a80&#45;&gt;Node0x2220720 -->
<g id="edge19" class="edge"><title>Node0x2220a80&#45;&gt;Node0x2220720</title>
<path fill="none" stroke="black" d="M275.903,-648.157C264.237,-665.178 249,-692.484 249,-719 249,-887 249,-887 249,-887 249,-910.156 261.819,-933.127 274.067,-949.791"/>
<polygon fill="black" stroke="black" points="271.458,-952.137 280.35,-957.897 276.991,-947.849 271.458,-952.137"/>
</g>
<!-- Node0x2220a80&#45;&gt;Node0x2220940 -->
<g id="edge21" class="edge"><title>Node0x2220a80&#45;&gt;Node0x2220940</title>
<path fill="none" stroke="black" d="M288.486,-648.236C288.093,-681.722 290.194,-757.341 314,-815 320.824,-831.528 332.522,-847.606 343.195,-860.177"/>
<polygon fill="black" stroke="black" points="340.763,-862.711 349.999,-867.901 346.015,-858.084 340.763,-862.711"/>
</g>
<!-- Node0x2220a80&#45;&gt;Node0x2220bd0 -->
<g id="edge24" class="edge"><title>Node0x2220a80&#45;&gt;Node0x2220bd0</title>
<path fill="none" stroke="black" stroke-dasharray="5,2" d="M350.04,-613.199C384.761,-604.17 422.116,-594.371 426,-593 479.28,-574.201 542,-597.499 542,-541 542,-541 542,-541 542,-359 542,-339.314 554.923,-321.846 568.673,-308.831"/>
<polygon fill="black" stroke="black" points="571.145,-311.318 576.321,-302.074 566.509,-306.073 571.145,-311.318"/>
</g>
<!-- Node0x2220a80&#45;&gt;Node0x22250b0 -->
<g id="edge26" class="edge"><title>Node0x2220a80&#45;&gt;Node0x22250b0</title>
<path fill="none" stroke="black" stroke-dasharray="5,2" d="M227.919,-620.009C153.623,-607.315 38,-581.116 38,-541 38,-541 38,-541 38,-359 38,-341.585 46.4313,-324.157 55.3511,-310.593"/>
<polygon fill="black" stroke="black" points="58.3103,-312.469 61.1994,-302.276 52.5842,-308.443 58.3103,-312.469"/>
</g>
<!-- Node0x2220a80&#45;&gt;Node0x22207f0 -->
<g id="edge16" class="edge"><title>Node0x2220a80&#45;&gt;Node0x22207f0</title>
<path fill="none" stroke="black" d="M291.371,-611.614C293.058,-599.24 295.359,-582.369 297.288,-568.22"/>
<polygon fill="black" stroke="black" points="300.792,-568.432 298.675,-558.05 293.856,-567.486 300.792,-568.432"/>
</g>
<!-- Node0x2220a80&#45;&gt;Node0x2220860 -->
<g id="edge18" class="edge"><title>Node0x2220a80&#45;&gt;Node0x2220860</title>
<path fill="none" stroke="black" d="M343.911,-611.92C369.051,-601.04 396.437,-584.146 411,-559 427.136,-531.138 421.891,-513.073 403,-487 399.482,-482.145 395.09,-477.813 390.298,-473.986"/>
<polygon fill="black" stroke="black" points="392.113,-470.981 381.941,-468.018 388.045,-476.678 392.113,-470.981"/>
</g>
<!-- Node0x2220a80&#45;&gt;Node0x2220790 -->
<g id="edge20" class="edge"><title>Node0x2220a80&#45;&gt;Node0x2220790</title>
<path fill="none" stroke="black" d="M350.299,-613.097C372.236,-606.685 393.81,-599.325 403,-593 432.763,-572.517 480.721,-480.838 484,-469 492.555,-438.114 499.808,-422.195 480,-397 475.92,-391.81 471.013,-387.369 465.599,-383.568"/>
<polygon fill="black" stroke="black" points="467.073,-380.365 456.722,-378.106 463.405,-386.327 467.073,-380.365"/>
</g>
<!-- Node0x2220a80&#45;&gt;Node0x22209f0 -->
<g id="edge22" class="edge"><title>Node0x2220a80&#45;&gt;Node0x22209f0</title>
<path fill="none" stroke="black" d="M297.09,-648.01C310.686,-676.595 338.211,-734.468 354.371,-768.447"/>
<polygon fill="black" stroke="black" points="351.344,-770.232 358.8,-777.759 357.666,-767.225 351.344,-770.232"/>
</g>
<!-- Node0x2224e10 -->
<g id="node13" class="node"><title>Node0x2224e10</title>
<polygon fill="none" stroke="black" points="684,-522 684,-558 800,-558 800,-522 684,-522"/>
<text text-anchor="middle" x="742" y="-536.3" font-family="Times,serif" font-size="14.00">FORMAL_IN:i32</text>
</g>
<!-- Node0x2220a80&#45;&gt;Node0x2224e10 -->
<g id="edge23" class="edge"><title>Node0x2220a80&#45;&gt;Node0x2224e10</title>
<path fill="none" stroke="black" stroke-dasharray="5,2" d="M350.339,-612.633C353.258,-612.041 356.156,-611.492 359,-611 445.632,-596.004 469.53,-608.902 556,-593 598.351,-585.212 645.02,-572.151 681.016,-561.068"/>
<polygon fill="black" stroke="black" points="682.365,-564.314 690.874,-558 680.285,-557.63 682.365,-564.314"/>
</g>
<!-- Node0x2225040 -->
<g id="node14" class="node"><title>Node0x2225040</title>
<polygon fill="none" stroke="black" points="66,-522 66,-558 182,-558 182,-522 66,-522"/>
<text text-anchor="middle" x="124" y="-536.3" font-family="Times,serif" font-size="14.00">FORMAL_IN:i32</text>
</g>
<!-- Node0x2220a80&#45;&gt;Node0x2225040 -->
<g id="edge25" class="edge"><title>Node0x2220a80&#45;&gt;Node0x2225040</title>
<path fill="none" stroke="black" stroke-dasharray="5,2" d="M256.795,-611.824C230.56,-597.832 193.354,-577.989 164.995,-562.864"/>
<polygon fill="black" stroke="black" points="166.595,-559.751 156.124,-558.133 163.301,-565.927 166.595,-559.751"/>
</g>
<!-- Node0x2224e10&#45;&gt;Node0x22206b0 -->
<g id="edge41" class="edge"><title>Node0x2224e10&#45;&gt;Node0x22206b0</title>
<path fill="none" stroke="black" stroke-dasharray="1,5" d="M761.825,-558.228C775.91,-571.419 794.324,-590.741 806,-611 831.127,-654.6 840,-668.678 840,-719 840,-977 840,-977 840,-977 840,-1030.54 700.012,-1051.52 586.711,-1059.73"/>
<polygon fill="black" stroke="black" points="586.262,-1056.25 576.529,-1060.44 586.748,-1063.24 586.262,-1056.25"/>
</g>
<!-- Node0x2224e10&#45;&gt;Node0x2220bd0 -->
<g id="edge40" class="edge"><title>Node0x2224e10&#45;&gt;Node0x2220bd0</title>
<path fill="none" stroke="black" stroke-dasharray="5,2" d="M733.652,-521.862C710.15,-473.704 644.336,-339.46 632,-321 629.577,-317.374 626.832,-313.71 624.002,-310.179"/>
<polygon fill="black" stroke="black" points="626.465,-307.669 617.355,-302.259 621.103,-312.169 626.465,-307.669"/>
</g>
<!-- Node0x2224e10&#45;&gt;Node0x2220860 -->
<g id="edge42" class="edge"><title>Node0x2224e10&#45;&gt;Node0x2220860</title>
<path fill="none" stroke="black" stroke-dasharray="1,5" d="M683.701,-526.11C617.164,-511.398 507.661,-487.186 431.017,-470.24"/>
<polygon fill="black" stroke="black" points="431.418,-466.744 420.899,-468.003 429.907,-473.579 431.418,-466.744"/>
</g>
<!-- Node0x2225040&#45;&gt;Node0x22206b0 -->
<g id="edge45" class="edge"><title>Node0x2225040&#45;&gt;Node0x22206b0</title>
<path fill="none" stroke="black" stroke-dasharray="1,5" d="M124,-558.199C124,-575.938 124,-604.403 124,-629 124,-977 124,-977 124,-977 124,-999.72 245.147,-1027.74 338.592,-1045.97"/>
<polygon fill="black" stroke="black" points="338.207,-1049.46 348.689,-1047.92 339.536,-1042.58 338.207,-1049.46"/>
</g>
<!-- Node0x2225040&#45;&gt;Node0x22250b0 -->
<g id="edge44" class="edge"><title>Node0x2225040&#45;&gt;Node0x22250b0</title>
<path fill="none" stroke="black" stroke-dasharray="5,2" d="M120.776,-521.94C112.615,-478.755 91.0837,-364.818 81.1524,-312.265"/>
<polygon fill="black" stroke="black" points="84.5692,-311.496 79.2731,-302.32 77.691,-312.796 84.5692,-311.496"/>
</g>
<!-- Node0x2225040&#45;&gt;Node0x2220860 -->
<g id="edge46" class="edge"><title>Node0x2225040&#45;&gt;Node0x2220860</title>
<path fill="none" stroke="black" stroke-dasharray="1,5" d="M166.679,-521.928C202.504,-507.598 253.809,-487.076 292.024,-471.791"/>
<polygon fill="black" stroke="black" points="293.455,-474.988 301.44,-468.024 290.855,-468.488 293.455,-474.988"/>
</g>
<!-- Node0x2223d30 -->
<g id="node15" class="node"><title>Node0x2223d30</title>
<polygon fill="none" stroke="black" points="1678.5,-702 1678.5,-738 1851.5,-738 1851.5,-702 1678.5,-702"/>
<text text-anchor="middle" x="1765" y="-716.3" font-family="Times,serif" font-size="14.00">%retval = alloca i32, align 4</text>
</g>
<!-- Node0x2223da0 -->
<g id="node16" class="node"><title>Node0x2223da0</title>
<polygon fill="none" stroke="black" points="1652,-612 1652,-648 1804,-648 1804,-612 1652,-612"/>
<text text-anchor="middle" x="1728" y="-626.3" font-family="Times,serif" font-size="14.00">store i32 0, i32* %retval</text>
</g>
<!-- Node0x2223d30&#45;&gt;Node0x2223da0 -->
<g id="edge27" class="edge"><title>Node0x2223d30&#45;&gt;Node0x2223da0</title>
<path fill="none" stroke="black" stroke-dasharray="1,5" d="M1757.69,-701.614C1752.39,-688.998 1745.11,-671.705 1739.1,-657.391"/>
<polygon fill="black" stroke="black" points="1742.27,-655.912 1735.17,-648.05 1735.82,-658.625 1742.27,-655.912"/>
<text text-anchor="middle" x="1785" y="-671.3" font-family="Times,serif" font-size="14.00">{DEF_USE}</text>
</g>
<!-- Node0x2223e10 -->
<g id="node17" class="node"><title>Node0x2223e10</title>
<polygon fill="none" stroke="black" points="1946,-702 1946,-738 2168,-738 2168,-702 1946,-702"/>
<text text-anchor="middle" x="2057" y="-716.3" font-family="Times,serif" font-size="14.00">%f2p = alloca i32 (i32, i32)*, align 8</text>
</g>
<!-- Node0x2223e80 -->
<g id="node18" class="node"><title>Node0x2223e80</title>
<polygon fill="none" stroke="black" points="2054.5,-612 2054.5,-648 2391.5,-648 2391.5,-612 2054.5,-612"/>
<text text-anchor="middle" x="2223" y="-626.3" font-family="Times,serif" font-size="14.00">store i32 (i32, i32)* @sum, i32 (i32, i32)** %f2p, align 8</text>
</g>
<!-- Node0x2223e10&#45;&gt;Node0x2223e80 -->
<g id="edge28" class="edge"><title>Node0x2223e10&#45;&gt;Node0x2223e80</title>
<path fill="none" stroke="black" stroke-dasharray="1,5" d="M2075.47,-701.778C2088.11,-690.697 2105.65,-676.623 2123,-667 2133.4,-661.231 2144.9,-656.085 2156.29,-651.614"/>
<polygon fill="black" stroke="black" points="2157.69,-654.828 2165.81,-648.019 2155.21,-648.28 2157.69,-654.828"/>
<text text-anchor="middle" x="2159" y="-671.3" font-family="Times,serif" font-size="14.00">{DEF_USE}</text>
</g>
<!-- Node0x2223ef0 -->
<g id="node19" class="node"><title>Node0x2223ef0</title>
<polygon fill="none" stroke="black" points="1908,-522 1908,-558 2150,-558 2150,-522 1908,-522"/>
<text text-anchor="middle" x="2029" y="-536.3" font-family="Times,serif" font-size="14.00">%0 = load i32 (i32, i32)** %f2p, align 8</text>
</g>
<!-- Node0x2223e10&#45;&gt;Node0x2223ef0 -->
<g id="edge29" class="edge"><title>Node0x2223e10&#45;&gt;Node0x2223ef0</title>
<path fill="none" stroke="black" stroke-dasharray="1,5" d="M2025.25,-701.795C2006.56,-689.741 1984.57,-671.735 1974,-649 1960.43,-619.813 1982.72,-586.946 2002.85,-565.218"/>
<polygon fill="black" stroke="black" points="2005.38,-567.64 2009.82,-558.021 2000.35,-562.77 2005.38,-567.64"/>
<text text-anchor="middle" x="2010" y="-626.3" font-family="Times,serif" font-size="14.00">{DEF_USE}</text>
</g>
<!-- Node0x2223e80&#45;&gt;Node0x2223ef0 -->
<g id="edge30" class="edge"><title>Node0x2223e80&#45;&gt;Node0x2223ef0</title>
<path fill="none" stroke="black" stroke-dasharray="1,5" d="M2185.13,-611.824C2153.89,-597.651 2109.41,-577.473 2075.91,-562.277"/>
<polygon fill="black" stroke="black" points="2077.32,-559.076 2066.77,-558.133 2074.43,-565.451 2077.32,-559.076"/>
<text text-anchor="middle" x="2177" y="-581.3" font-family="Times,serif" font-size="14.00">{RAW} f2p</text>
</g>
<!-- Node0x2224310 -->
<g id="node20" class="node"><title>Node0x2224310</title>
<polygon fill="none" stroke="black" points="1819,-432 1819,-468 2031,-468 2031,-432 1819,-432"/>
<text text-anchor="middle" x="1925" y="-446.3" font-family="Times,serif" font-size="14.00">%call = call i32 %0(i32 10, i32 13)</text>
</g>
<!-- Node0x2223ef0&#45;&gt;Node0x2224310 -->
<g id="edge31" class="edge"><title>Node0x2223ef0&#45;&gt;Node0x2224310</title>
<path fill="none" stroke="black" stroke-dasharray="1,5" d="M2008.45,-521.614C1992.54,-508.149 1970.33,-489.356 1952.82,-474.543"/>
<polygon fill="black" stroke="black" points="1955.05,-471.838 1945.15,-468.05 1950.52,-477.182 1955.05,-471.838"/>
<text text-anchor="middle" x="2022" y="-491.3" font-family="Times,serif" font-size="14.00">{DEF_USE}</text>
</g>
<!-- Node0x2223f90 -->
<g id="node21" class="node"><title>Node0x2223f90</title>
<polygon fill="none" stroke="black" points="1344.5,-702 1344.5,-738 1507.5,-738 1507.5,-702 1344.5,-702"/>
<text text-anchor="middle" x="1426" y="-716.3" font-family="Times,serif" font-size="14.00">%op1 = alloca i32, align 4</text>
</g>
<!-- Node0x2224000 -->
<g id="node22" class="node"><title>Node0x2224000</title>
<polygon fill="none" stroke="black" points="1283,-612 1283,-648 1495,-648 1495,-612 1283,-612"/>
<text text-anchor="middle" x="1389" y="-626.3" font-family="Times,serif" font-size="14.00">store i32 %call, i32* %op1, align 4</text>
</g>
<!-- Node0x2223f90&#45;&gt;Node0x2224000 -->
<g id="edge32" class="edge"><title>Node0x2223f90&#45;&gt;Node0x2224000</title>
<path fill="none" stroke="black" stroke-dasharray="1,5" d="M1418.69,-701.614C1413.39,-688.998 1406.11,-671.705 1400.1,-657.391"/>
<polygon fill="black" stroke="black" points="1403.27,-655.912 1396.17,-648.05 1396.82,-658.625 1403.27,-655.912"/>
<text text-anchor="middle" x="1447" y="-671.3" font-family="Times,serif" font-size="14.00">{DEF_USE}</text>
</g>
<!-- Node0x2224070 -->
<g id="node23" class="node"><title>Node0x2224070</title>
<polygon fill="none" stroke="black" points="1346.5,-114 1346.5,-150 1529.5,-150 1529.5,-114 1346.5,-114"/>
<text text-anchor="middle" x="1438" y="-128.3" font-family="Times,serif" font-size="14.00">%1 = load i32* %op1, align 4</text>
</g>
<!-- Node0x2223f90&#45;&gt;Node0x2224070 -->
<g id="edge33" class="edge"><title>Node0x2223f90&#45;&gt;Node0x2224070</title>
<path fill="none" stroke="black" stroke-dasharray="1,5" d="M1463.14,-701.855C1471.72,-696.672 1480.29,-690.364 1487,-683 1498.25,-670.653 1499.36,-665.298 1503,-649 1506.68,-632.518 1503.64,-627.877 1503,-611 1499.66,-522.811 1492.18,-501.153 1488,-413 1486.9,-389.911 1487,-384.115 1487,-361 1487,-361 1487,-361 1487,-207 1487,-188.323 1476.02,-170.743 1464.45,-157.408"/>
<polygon fill="black" stroke="black" points="1467.01,-155.027 1457.65,-150.071 1461.88,-159.785 1467.01,-155.027"/>
<text text-anchor="middle" x="1524" y="-401.3" font-family="Times,serif" font-size="14.00">{DEF_USE}</text>
</g>
<!-- Node0x2224000&#45;&gt;Node0x2224070 -->
<g id="edge34" class="edge"><title>Node0x2224000&#45;&gt;Node0x2224070</title>
<path fill="none" stroke="black" stroke-dasharray="1,5" d="M1389,-611.801C1389,-594.062 1389,-565.597 1389,-541 1389,-541 1389,-541 1389,-207 1389,-188.323 1399.98,-170.743 1411.55,-157.408"/>
<polygon fill="black" stroke="black" points="1414.12,-159.785 1418.35,-150.071 1408.99,-155.027 1414.12,-159.785"/>
<text text-anchor="middle" x="1424" y="-356.3" font-family="Times,serif" font-size="14.00">{RAW} op1</text>
</g>
<!-- Node0x2225b80 -->
<g id="node24" class="node"><title>Node0x2225b80</title>
<polygon fill="none" stroke="black" points="1317,-24 1317,-60 1907,-60 1907,-24 1317,-24"/>
<text text-anchor="middle" x="1612" y="-38.3" font-family="Times,serif" font-size="14.00">%call2 = call i32 (i8*, ...)* @printf(i8* getelementptr inbounds ([46 x i8]* @.str, i32 0, i32 0), i32 %1)</text>
</g>
<!-- Node0x2224070&#45;&gt;Node0x2225b80 -->
<g id="edge35" class="edge"><title>Node0x2224070&#45;&gt;Node0x2225b80</title>
<path fill="none" stroke="black" stroke-dasharray="1,5" d="M1464.81,-113.853C1481.98,-103.207 1504.9,-89.5852 1526,-79 1536.29,-73.8346 1547.51,-68.7594 1558.34,-64.1233"/>
<polygon fill="black" stroke="black" points="1559.87,-67.2779 1567.72,-60.171 1557.15,-60.8267 1559.87,-67.2779"/>
<text text-anchor="middle" x="1562" y="-83.3" font-family="Times,serif" font-size="14.00">{DEF_USE}</text>
</g>
<!-- Node0x2220b20 -->
<g id="node25" class="node"><title>Node0x2220b20</title>
<polygon fill="none" stroke="black" points="1006.5,-702 1006.5,-738 1169.5,-738 1169.5,-702 1006.5,-702"/>
<text text-anchor="middle" x="1088" y="-716.3" font-family="Times,serif" font-size="14.00">%op2 = alloca i32, align 4</text>
</g>
<!-- Node0x2220b20&#45;&gt;Node0x2220b50 -->
<g id="edge36" class="edge"><title>Node0x2220b20&#45;&gt;Node0x2220b50</title>
<path fill="none" stroke="black" stroke-dasharray="1,5" d="M1070.75,-701.821C1064.8,-695.873 1058.1,-689.155 1052,-683 1043.19,-674.105 1033.57,-664.313 1025.08,-655.648"/>
<polygon fill="black" stroke="black" points="1027.45,-653.072 1017.96,-648.375 1022.45,-657.969 1027.45,-653.072"/>
<text text-anchor="middle" x="1088" y="-671.3" font-family="Times,serif" font-size="14.00">{DEF_USE}</text>
</g>
<!-- Node0x2224270 -->
<g id="node27" class="node"><title>Node0x2224270</title>
<polygon fill="none" stroke="black" points="909.5,-114 909.5,-150 1092.5,-150 1092.5,-114 909.5,-114"/>
<text text-anchor="middle" x="1001" y="-128.3" font-family="Times,serif" font-size="14.00">%2 = load i32* %op2, align 4</text>
</g>
<!-- Node0x2220b20&#45;&gt;Node0x2224270 -->
<g id="edge37" class="edge"><title>Node0x2220b20&#45;&gt;Node0x2224270</title>
<path fill="none" stroke="black" stroke-dasharray="1,5" d="M1110.69,-701.749C1116.07,-696.39 1121.09,-690.023 1124,-683 1126.72,-676.43 1124.17,-674.109 1124,-667 1120.79,-530.915 1111,-497.123 1111,-361 1111,-361 1111,-361 1111,-207 1111,-182.725 1092.33,-165.892 1070.37,-154.488"/>
<polygon fill="black" stroke="black" points="1071.68,-151.235 1061.15,-150.079 1068.66,-157.55 1071.68,-151.235"/>
<text text-anchor="middle" x="1148" y="-401.3" font-family="Times,serif" font-size="14.00">{DEF_USE}</text>
</g>
<!-- Node0x2220b50&#45;&gt;Node0x2224270 -->
<g id="edge38" class="edge"><title>Node0x2220b50&#45;&gt;Node0x2224270</title>
<path fill="none" stroke="black" stroke-dasharray="1,5" d="M1001,-611.801C1001,-594.062 1001,-565.597 1001,-541 1001,-541 1001,-541 1001,-207 1001,-191.591 1001,-174.378 1001,-160.433"/>
<polygon fill="black" stroke="black" points="1004.5,-160.047 1001,-150.047 997.5,-160.047 1004.5,-160.047"/>
<text text-anchor="middle" x="1036" y="-356.3" font-family="Times,serif" font-size="14.00">{RAW} op2</text>
</g>
<!-- Node0x2225c10 -->
<g id="node28" class="node"><title>Node0x2225c10</title>
<polygon fill="none" stroke="black" points="703,-24 703,-60 1299,-60 1299,-24 703,-24"/>
<text text-anchor="middle" x="1001" y="-38.3" font-family="Times,serif" font-size="14.00">%call3 = call i32 (i8*, ...)* @printf(i8* getelementptr inbounds ([40 x i8]* @.str1, i32 0, i32 0), i32 %2)</text>
</g>
<!-- Node0x2224270&#45;&gt;Node0x2225c10 -->
<g id="edge39" class="edge"><title>Node0x2224270&#45;&gt;Node0x2225c10</title>
<path fill="none" stroke="black" stroke-dasharray="1,5" d="M1001,-113.614C1001,-101.24 1001,-84.3686 1001,-70.2198"/>
<polygon fill="black" stroke="black" points="1004.5,-70.0504 1001,-60.0504 997.5,-70.0504 1004.5,-70.0504"/>
<text text-anchor="middle" x="1037" y="-83.3" font-family="Times,serif" font-size="14.00">{DEF_USE}</text>
</g>
<!-- Node0x22258a0&#45;&gt;Node0x2224070 -->
<g id="edge55" class="edge"><title>Node0x22258a0&#45;&gt;Node0x2224070</title>
<path fill="none" stroke="black" stroke-dasharray="1,5" d="M950.745,-198.439C1045.2,-185.753 1223.28,-161.837 1336.01,-146.698"/>
<polygon fill="black" stroke="black" points="1336.59,-150.151 1346.03,-145.351 1335.66,-143.214 1336.59,-150.151"/>
</g>
<!-- Node0x22258a0&#45;&gt;Node0x2224270 -->
<g id="edge56" class="edge"><title>Node0x22258a0&#45;&gt;Node0x2224270</title>
<path fill="none" stroke="black" stroke-dasharray="1,5" d="M913.44,-189.837C929.124,-179.657 949.189,-166.632 966.154,-155.619"/>
<polygon fill="black" stroke="black" points="968.221,-158.45 974.703,-150.07 964.409,-152.579 968.221,-158.45"/>
</g>
<!-- Node0x22259a0&#45;&gt;Node0x2224070 -->
<g id="edge58" class="edge"><title>Node0x22259a0&#45;&gt;Node0x2224070</title>
<path fill="none" stroke="black" stroke-dasharray="1,5" d="M781.634,-194.183C792.408,-192.268 803.502,-190.452 814,-189 997.264,-163.655 1212.47,-147.268 1336.27,-139.124"/>
<polygon fill="black" stroke="black" points="1336.74,-142.601 1346.49,-138.456 1336.28,-135.615 1336.74,-142.601"/>
</g>
<!-- Node0x22259a0&#45;&gt;Node0x2224270 -->
<g id="edge59" class="edge"><title>Node0x22259a0&#45;&gt;Node0x2224270</title>
<path fill="none" stroke="black" stroke-dasharray="1,5" d="M781.511,-190.393C824.325,-179.198 880.993,-164.38 926.024,-152.605"/>
<polygon fill="black" stroke="black" points="926.949,-155.981 935.738,-150.065 925.178,-149.209 926.949,-155.981"/>
</g>
<!-- Node0x2225800&#45;&gt;Node0x2224e10 -->
<g id="edge54" class="edge"><title>Node0x2225800&#45;&gt;Node0x2224e10</title>
<path fill="none" stroke="black" stroke-dasharray="5,2" d="M741.198,-611.614C741.338,-599.24 741.53,-582.369 741.691,-568.22"/>
<polygon fill="black" stroke="black" points="745.192,-568.09 741.806,-558.05 738.193,-568.01 745.192,-568.09"/>
</g>
<!-- Node0x2225870&#45;&gt;Node0x2225040 -->
<g id="edge57" class="edge"><title>Node0x2225870&#45;&gt;Node0x2225040</title>
<path fill="none" stroke="black" stroke-dasharray="5,2" d="M368.384,-612.448C318.284,-597.801 245.074,-576.397 191.852,-560.837"/>
<polygon fill="black" stroke="black" points="192.737,-557.45 182.157,-558.003 190.773,-564.168 192.737,-557.45"/>
</g>
<!-- Node0x2225ca0 -->
<g id="node33" class="node"><title>Node0x2225ca0</title>
<polygon fill="none" stroke="black" points="1492,-778 1492,-814 1618,-814 1618,-778 1492,-778"/>
<text text-anchor="middle" x="1555" y="-792.3" font-family="Times,serif" font-size="14.00">&lt;&lt;ENTRY&gt;&gt; main</text>
</g>
<!-- Node0x2225ca0&#45;&gt;Node0x2225750 -->
<g id="edge69" class="edge"><title>Node0x2225ca0&#45;&gt;Node0x2225750</title>
<path fill="none" stroke="black" d="M1491.89,-792.793C1383.66,-788.643 1155.77,-778.305 964,-759 913.653,-753.932 858.275,-746.47 810.846,-739.498"/>
<polygon fill="black" stroke="black" points="811.255,-736.021 800.851,-738.019 810.23,-742.945 811.255,-736.021"/>
</g>
<!-- Node0x2225ca0&#45;&gt;Node0x2223d30 -->
<g id="edge60" class="edge"><title>Node0x2225ca0&#45;&gt;Node0x2223d30</title>
<path fill="none" stroke="black" d="M1608.09,-777.946C1625.91,-772.094 1645.87,-765.403 1664,-759 1679.36,-753.576 1695.94,-747.453 1711.14,-741.731"/>
<polygon fill="black" stroke="black" points="1712.78,-744.851 1720.9,-738.04 1710.3,-738.304 1712.78,-744.851"/>
</g>
<!-- Node0x2225ca0&#45;&gt;Node0x2223da0 -->
<g id="edge64" class="edge"><title>Node0x2225ca0&#45;&gt;Node0x2223da0</title>
<path fill="none" stroke="black" d="M1596.38,-777.969C1606.63,-772.719 1617.19,-766.35 1626,-759 1650.84,-738.266 1649.9,-726.352 1670,-701 1682.02,-685.844 1695.82,-669.155 1706.95,-655.875"/>
<polygon fill="black" stroke="black" points="1709.74,-657.999 1713.49,-648.092 1704.38,-653.496 1709.74,-657.999"/>
</g>
<!-- Node0x2225ca0&#45;&gt;Node0x2223e10 -->
<g id="edge61" class="edge"><title>Node0x2225ca0&#45;&gt;Node0x2223e10</title>
<path fill="none" stroke="black" d="M1618.26,-792.819C1693.61,-789.335 1822.99,-780.548 1932,-759 1954.28,-754.595 1978.26,-747.822 1999.2,-741.207"/>
<polygon fill="black" stroke="black" points="2000.45,-744.481 2008.9,-738.086 1998.3,-737.817 2000.45,-744.481"/>
</g>
<!-- Node0x2225ca0&#45;&gt;Node0x2223e80 -->
<g id="edge65" class="edge"><title>Node0x2225ca0&#45;&gt;Node0x2223e80</title>
<path fill="none" stroke="black" d="M1618.1,-792.927C1767.07,-787.525 2131.45,-771.149 2176,-739 2202.12,-720.153 2213.89,-683.617 2219.08,-658.292"/>
<polygon fill="black" stroke="black" points="2222.57,-658.675 2220.92,-648.209 2215.68,-657.415 2222.57,-658.675"/>
</g>
<!-- Node0x2225ca0&#45;&gt;Node0x2223ef0 -->
<g id="edge66" class="edge"><title>Node0x2225ca0&#45;&gt;Node0x2223ef0</title>
<path fill="none" stroke="black" d="M1618.33,-795.586C1704.06,-795.169 1851.26,-789.793 1894,-759 1966.13,-707.029 1919.96,-645.194 1977,-577 1980.84,-572.414 1985.39,-568.15 1990.19,-564.278"/>
<polygon fill="black" stroke="black" points="1992.49,-566.933 1998.41,-558.146 1988.3,-561.323 1992.49,-566.933"/>
</g>
<!-- Node0x2225ca0&#45;&gt;Node0x2224310 -->
<g id="edge67" class="edge"><title>Node0x2225ca0&#45;&gt;Node0x2224310</title>
<path fill="none" stroke="black" d="M1618.05,-793.349C1712.56,-789.134 1880,-774.166 1880,-721 1880,-721 1880,-721 1880,-539 1880,-516.059 1892.27,-493.078 1904,-476.356"/>
<polygon fill="black" stroke="black" points="1906.89,-478.339 1910.02,-468.216 1901.26,-474.179 1906.89,-478.339"/>
</g>
<!-- Node0x2225ca0&#45;&gt;Node0x2223f90 -->
<g id="edge62" class="edge"><title>Node0x2225ca0&#45;&gt;Node0x2223f90</title>
<path fill="none" stroke="black" d="M1525.08,-777.837C1507.09,-767.516 1484,-754.273 1464.64,-743.166"/>
<polygon fill="black" stroke="black" points="1466.17,-740.01 1455.76,-738.07 1462.69,-746.082 1466.17,-740.01"/>
</g>
<!-- Node0x2225ca0&#45;&gt;Node0x2224000 -->
<g id="edge68" class="edge"><title>Node0x2225ca0&#45;&gt;Node0x2224000</title>
<path fill="none" stroke="black" d="M1550.92,-777.869C1543.19,-749.529 1523.51,-693.397 1484,-667 1475.44,-661.283 1465.85,-656.302 1456.14,-652.018"/>
<polygon fill="black" stroke="black" points="1457.4,-648.751 1446.82,-648.123 1454.7,-655.21 1457.4,-648.751"/>
</g>
<!-- Node0x2225ca0&#45;&gt;Node0x2224070 -->
<g id="edge71" class="edge"><title>Node0x2225ca0&#45;&gt;Node0x2224070</title>
<path fill="none" stroke="black" d="M1561.97,-777.973C1567.39,-763.175 1574,-741.029 1574,-721 1574,-721 1574,-721 1574,-207 1574,-181.846 1555.83,-165.194 1532.77,-154.189"/>
<polygon fill="black" stroke="black" points="1533.92,-150.875 1523.36,-150.098 1531.13,-157.295 1533.92,-150.875"/>
</g>
<!-- Node0x2225ca0&#45;&gt;Node0x2225b80 -->
<g id="edge72" class="edge"><title>Node0x2225ca0&#45;&gt;Node0x2225b80</title>
<path fill="none" stroke="black" d="M1578.84,-777.745C1594.46,-764.277 1612,-744.028 1612,-721 1612,-721 1612,-721 1612,-131 1612,-110.63 1612,-87.6087 1612,-70.2225"/>
<polygon fill="black" stroke="black" points="1615.5,-70.1994 1612,-60.1995 1608.5,-70.1995 1615.5,-70.1994"/>
</g>
<!-- Node0x2225ca0&#45;&gt;Node0x2220b20 -->
<g id="edge63" class="edge"><title>Node0x2225ca0&#45;&gt;Node0x2220b20</title>
<path fill="none" stroke="black" d="M1491.75,-794.224C1417.19,-792.084 1290,-784.582 1184,-759 1167.12,-754.925 1149.26,-748.492 1133.59,-742.068"/>
<polygon fill="black" stroke="black" points="1134.72,-738.745 1124.14,-738.091 1132,-745.197 1134.72,-738.745"/>
</g>
<!-- Node0x2225ca0&#45;&gt;Node0x2220b50 -->
<g id="edge70" class="edge"><title>Node0x2225ca0&#45;&gt;Node0x2220b50</title>
<path fill="none" stroke="black" d="M1491.76,-793.359C1352.58,-789.092 1029.48,-775.339 997,-739 977.524,-717.213 983.227,-681.96 990.68,-657.691"/>
<polygon fill="black" stroke="black" points="994.057,-658.628 993.913,-648.034 987.42,-656.406 994.057,-658.628"/>
</g>
<!-- Node0x2225ca0&#45;&gt;Node0x2224270 -->
<g id="edge73" class="edge"><title>Node0x2225ca0&#45;&gt;Node0x2224270</title>
<path fill="none" stroke="black" d="M1491.91,-794.611C1408.14,-793.016 1265.67,-786.231 1222,-759 1205.05,-748.43 1198,-740.975 1198,-721 1198,-721 1198,-721 1198,-207 1198,-183.623 1148.77,-165.127 1099.54,-152.473"/>
<polygon fill="black" stroke="black" points="1100.25,-149.044 1089.7,-150.02 1098.56,-155.836 1100.25,-149.044"/>
</g>
<!-- Node0x2225ca0&#45;&gt;Node0x2225c10 -->
<g id="edge74" class="edge"><title>Node0x2225ca0&#45;&gt;Node0x2225c10</title>
<path fill="none" stroke="black" d="M1491.98,-793.07C1399.01,-788.482 1236,-773.02 1236,-721 1236,-721 1236,-721 1236,-131 1236,-100.709 1166.66,-77.36 1103.31,-62.3494"/>
<polygon fill="black" stroke="black" points="1103.74,-58.8558 1093.2,-60.012 1102.16,-65.6758 1103.74,-58.8558"/>
</g>
<!-- Node0x2225930 -->
<g id="node34" class="node"><title>Node0x2225930</title>
<polygon fill="none" stroke="black" points="1264,-702 1264,-738 1326,-738 1326,-702 1264,-702"/>
<text text-anchor="middle" x="1295" y="-716.3" font-family="Times,serif" font-size="14.00">ret i32 0</text>
</g>
<!-- Node0x2225ca0&#45;&gt;Node0x2225930 -->
<g id="edge75" class="edge"><title>Node0x2225ca0&#45;&gt;Node0x2225930</title>
<path fill="none" stroke="black" d="M1491.55,-781.921C1449.48,-772.545 1393.05,-758.629 1335.8,-739.004"/>
<polygon fill="black" stroke="black" points="1336.83,-735.657 1326.23,-735.674 1334.53,-742.267 1336.83,-735.657"/>
</g>
</g>
</svg>
