<?xml version="1.0" encoding="UTF-8" standalone="no"?>
<!DOCTYPE svg PUBLIC "-//W3C//DTD SVG 1.1//EN"
 "http://www.w3.org/Graphics/SVG/1.1/DTD/svg11.dtd">
<!-- Generated by graphviz version 2.36.0 (20140111.2315)
 -->
<!-- Title: Program Dependency Graph for &#39;main&#39; function Pages: 1 -->
<svg width="3724pt" height="865pt"
 viewBox="0.00 0.00 3724.00 865.00" xmlns="http://www.w3.org/2000/svg" xmlns:xlink="http://www.w3.org/1999/xlink">
<g id="graph0" class="graph" transform="scale(1 1) rotate(0) translate(4 861)">
<title>Program Dependency Graph for &#39;main&#39; function</title>
<polygon fill="white" stroke="none" points="-4,4 -4,-861 3720,-861 3720,4 -4,4"/>
<text text-anchor="middle" x="1858" y="-7.8" font-family="Times,serif" font-size="14.00">Program Dependency Graph for &#39;main&#39; function</text>
<!-- Node0x33850a0 -->
<g id="node1" class="node"><title>Node0x33850a0</title>
<polygon fill="none" stroke="black" points="2307.5,-744 2307.5,-780 2480.5,-780 2480.5,-744 2307.5,-744"/>
<text text-anchor="middle" x="2394" y="-758.3" font-family="Times,serif" font-size="14.00">%retval = alloca i32, align 4</text>
</g>
<!-- Node0x3385110 -->
<g id="node2" class="node"><title>Node0x3385110</title>
<polygon fill="none" stroke="black" points="2290,-654 2290,-690 2442,-690 2442,-654 2290,-654"/>
<text text-anchor="middle" x="2366" y="-668.3" font-family="Times,serif" font-size="14.00">store i32 0, i32* %retval</text>
</g>
<!-- Node0x33850a0&#45;&gt;Node0x3385110 -->
<g id="edge1" class="edge"><title>Node0x33850a0&#45;&gt;Node0x3385110</title>
<path fill="none" stroke="black" stroke-dasharray="1,5" d="M2388.47,-743.614C2384.49,-731.119 2379.06,-714.037 2374.53,-699.804"/>
<polygon fill="black" stroke="black" points="2377.79,-698.518 2371.43,-690.05 2371.12,-700.641 2377.79,-698.518"/>
<text text-anchor="middle" x="2419" y="-713.3" font-family="Times,serif" font-size="14.00">{DEF_USE}</text>
</g>
<!-- Node0x3384cc0 -->
<g id="node3" class="node"><title>Node0x3384cc0</title>
<polygon fill="none" stroke="black" points="0,-820 0,-856 280,-856 280,-820 0,-820"/>
<text text-anchor="middle" x="140" y="-834.3" font-family="Times,serif" font-size="14.00">GLOBAL_VALUE:@gv = global i32 5, align 4</text>
</g>
<!-- Node0x3385770 -->
<g id="node4" class="node"><title>Node0x3385770</title>
<polygon fill="none" stroke="black" points="151.5,-744 151.5,-780 328.5,-780 328.5,-744 151.5,-744"/>
<text text-anchor="middle" x="240" y="-758.3" font-family="Times,serif" font-size="14.00">%0 = load i32* @gv, align 4</text>
</g>
<!-- Node0x3384cc0&#45;&gt;Node0x3385770 -->
<g id="edge2" class="edge"><title>Node0x3384cc0&#45;&gt;Node0x3385770</title>
<path fill="none" stroke="black" stroke-dasharray="1,5" d="M163.193,-819.837C176.698,-809.843 193.907,-797.109 208.611,-786.228"/>
<polygon fill="black" stroke="black" points="210.976,-788.832 216.932,-780.07 206.812,-783.205 210.976,-788.832"/>
</g>
<!-- Node0x3385ac0 -->
<g id="node5" class="node"><title>Node0x3385ac0</title>
<polygon fill="none" stroke="black" points="328.5,-654 328.5,-690 539.5,-690 539.5,-654 328.5,-654"/>
<text text-anchor="middle" x="434" y="-668.3" font-family="Times,serif" font-size="14.00">store i32 %0, i32* %trivial, align 4</text>
</g>
<!-- Node0x3385770&#45;&gt;Node0x3385ac0 -->
<g id="edge3" class="edge"><title>Node0x3385770&#45;&gt;Node0x3385ac0</title>
<path fill="none" stroke="black" stroke-dasharray="1,5" d="M277.866,-743.824C309.111,-729.651 353.595,-709.473 387.093,-694.277"/>
<polygon fill="black" stroke="black" points="388.569,-697.451 396.23,-690.133 385.677,-691.076 388.569,-697.451"/>
<text text-anchor="middle" x="391" y="-713.3" font-family="Times,serif" font-size="14.00">{DEF_USE}</text>
</g>
<!-- Node0x33857e0 -->
<g id="node6" class="node"><title>Node0x33857e0</title>
<polygon fill="none" stroke="black" points="2372,-820 2372,-856 2684,-856 2684,-820 2372,-820"/>
<text text-anchor="middle" x="2528" y="-834.3" font-family="Times,serif" font-size="14.00">GLOBAL_VALUE:@gv_s = global i32 2017, align 4</text>
</g>
<!-- Node0x3385740 -->
<g id="node7" class="node"><title>Node0x3385740</title>
<polygon fill="none" stroke="black" points="2023.5,-744 2023.5,-780 2212.5,-780 2212.5,-744 2023.5,-744"/>
<text text-anchor="middle" x="2118" y="-758.3" font-family="Times,serif" font-size="14.00">%1 = load i32* @gv_s, align 4</text>
</g>
<!-- Node0x33857e0&#45;&gt;Node0x3385740 -->
<g id="edge4" class="edge"><title>Node0x33857e0&#45;&gt;Node0x3385740</title>
<path fill="none" stroke="black" stroke-dasharray="1,5" d="M2433.68,-819.976C2370.48,-808.57 2287.24,-793.545 2222.1,-781.789"/>
<polygon fill="black" stroke="black" points="2222.68,-778.337 2212.22,-780.005 2221.44,-785.226 2222.68,-778.337"/>
</g>
<!-- Node0x3385be0 -->
<g id="node8" class="node"><title>Node0x3385be0</title>
<polygon fill="none" stroke="black" points="1942,-654 1942,-690 2138,-690 2138,-654 1942,-654"/>
<text text-anchor="middle" x="2040" y="-668.3" font-family="Times,serif" font-size="14.00">store i32 %1, i32* %var, align 4</text>
</g>
<!-- Node0x3385740&#45;&gt;Node0x3385be0 -->
<g id="edge5" class="edge"><title>Node0x3385740&#45;&gt;Node0x3385be0</title>
<path fill="none" stroke="black" stroke-dasharray="1,5" d="M2102.59,-743.614C2090.98,-730.512 2074.89,-712.368 2061.94,-697.753"/>
<polygon fill="black" stroke="black" points="2064.37,-695.212 2055.11,-690.05 2059.13,-699.855 2064.37,-695.212"/>
<text text-anchor="middle" x="2122" y="-713.3" font-family="Times,serif" font-size="14.00">{DEF_USE}</text>
</g>
<!-- Node0x3385c80 -->
<g id="node15" class="node"><title>Node0x3385c80</title>
<polygon fill="none" stroke="black" points="1861,-564 1861,-600 2041,-600 2041,-564 1861,-564"/>
<text text-anchor="middle" x="1951" y="-578.3" font-family="Times,serif" font-size="14.00">%2 = load i32* %var, align 4</text>
</g>
<!-- Node0x3385be0&#45;&gt;Node0x3385c80 -->
<g id="edge15" class="edge"><title>Node0x3385be0&#45;&gt;Node0x3385c80</title>
<path fill="none" stroke="black" stroke-dasharray="1,5" d="M2022.42,-653.614C2009.04,-640.391 1990.48,-622.032 1975.62,-607.348"/>
<polygon fill="black" stroke="black" points="1977.82,-604.593 1968.24,-600.05 1972.89,-609.57 1977.82,-604.593"/>
<text text-anchor="middle" x="2037.5" y="-623.3" font-family="Times,serif" font-size="14.00">{RAW} var</text>
</g>
<!-- Node0x3385d80 -->
<g id="node17" class="node"><title>Node0x3385d80</title>
<polygon fill="none" stroke="black" points="2125,-114 2125,-150 2305,-150 2305,-114 2125,-114"/>
<text text-anchor="middle" x="2215" y="-128.3" font-family="Times,serif" font-size="14.00">%4 = load i32* %var, align 4</text>
</g>
<!-- Node0x3385be0&#45;&gt;Node0x3385d80 -->
<g id="edge16" class="edge"><title>Node0x3385be0&#45;&gt;Node0x3385d80</title>
<path fill="none" stroke="black" stroke-dasharray="1,5" d="M2049.39,-653.988C2056.98,-639.963 2067.71,-619.45 2076,-601 2093.65,-561.699 2102.75,-553.077 2112,-511 2126.62,-444.495 2120,-426.093 2120,-358 2120,-358 2120,-358 2120,-221 2120,-192.067 2144.01,-169.984 2167.89,-155.177"/>
<polygon fill="black" stroke="black" points="2169.78,-158.127 2176.63,-150.051 2166.24,-152.087 2169.78,-158.127"/>
<text text-anchor="middle" x="2155.5" y="-398.3" font-family="Times,serif" font-size="14.00">{RAW} var</text>
</g>
<!-- Node0x33858e0 -->
<g id="node9" class="node"><title>Node0x33858e0</title>
<polygon fill="none" stroke="black" points="298.5,-820 298.5,-856 701.5,-856 701.5,-820 298.5,-820"/>
<text text-anchor="middle" x="500" y="-834.3" font-family="Times,serif" font-size="14.00">GLOBAL_VALUE:@pi = global float 0x40091EB860000000, align 4</text>
</g>
<!-- Node0x3385950 -->
<g id="node10" class="node"><title>Node0x3385950</title>
<polygon fill="none" stroke="black" points="578,-744 578,-780 760,-780 760,-744 578,-744"/>
<text text-anchor="middle" x="669" y="-758.3" font-family="Times,serif" font-size="14.00">%3 = load float* @pi, align 4</text>
</g>
<!-- Node0x33858e0&#45;&gt;Node0x3385950 -->
<g id="edge6" class="edge"><title>Node0x33858e0&#45;&gt;Node0x3385950</title>
<path fill="none" stroke="black" stroke-dasharray="1,5" d="M539.197,-819.837C563.513,-809.19 594.935,-795.431 620.773,-784.117"/>
<polygon fill="black" stroke="black" points="622.259,-787.287 630.016,-780.07 619.452,-780.875 622.259,-787.287"/>
</g>
<!-- Node0x3386010 -->
<g id="node11" class="node"><title>Node0x3386010</title>
<polygon fill="none" stroke="black" points="677.5,-384 677.5,-420 862.5,-420 862.5,-384 677.5,-384"/>
<text text-anchor="middle" x="770" y="-398.3" font-family="Times,serif" font-size="14.00">%add = fadd float %conv, %3</text>
</g>
<!-- Node0x3385950&#45;&gt;Node0x3386010 -->
<g id="edge7" class="edge"><title>Node0x3385950&#45;&gt;Node0x3386010</title>
<path fill="none" stroke="black" stroke-dasharray="1,5" d="M669.311,-743.801C669.604,-726.063 670,-697.599 670,-673 670,-673 670,-673 670,-491 670,-461.521 694.794,-439.581 719.69,-424.98"/>
<polygon fill="black" stroke="black" points="721.408,-428.03 728.46,-420.122 718.016,-421.906 721.408,-428.03"/>
<text text-anchor="middle" x="706" y="-578.3" font-family="Times,serif" font-size="14.00">{DEF_USE}</text>
</g>
<!-- Node0x33864d0 -->
<g id="node21" class="node"><title>Node0x33864d0</title>
<polygon fill="none" stroke="black" points="879.5,-294 879.5,-330 1086.5,-330 1086.5,-294 879.5,-294"/>
<text text-anchor="middle" x="983" y="-308.3" font-family="Times,serif" font-size="14.00">%conv2 = fptosi float %add to i32</text>
</g>
<!-- Node0x3386010&#45;&gt;Node0x33864d0 -->
<g id="edge22" class="edge"><title>Node0x3386010&#45;&gt;Node0x33864d0</title>
<path fill="none" stroke="black" stroke-dasharray="1,5" d="M811.321,-383.928C845.859,-369.659 895.258,-349.25 932.206,-333.985"/>
<polygon fill="black" stroke="black" points="933.888,-337.077 941.794,-330.024 931.215,-330.608 933.888,-337.077"/>
<text text-anchor="middle" x="932" y="-353.3" font-family="Times,serif" font-size="14.00">{DEF_USE}</text>
</g>
<!-- Node0x33859c0 -->
<g id="node12" class="node"><title>Node0x33859c0</title>
<polygon fill="none" stroke="black" points="346.5,-744 346.5,-780 521.5,-780 521.5,-744 346.5,-744"/>
<text text-anchor="middle" x="434" y="-758.3" font-family="Times,serif" font-size="14.00">%trivial = alloca i32, align 4</text>
</g>
<!-- Node0x33859c0&#45;&gt;Node0x3385ac0 -->
<g id="edge8" class="edge"><title>Node0x33859c0&#45;&gt;Node0x3385ac0</title>
<path fill="none" stroke="black" stroke-dasharray="1,5" d="M434,-743.614C434,-731.24 434,-714.369 434,-700.22"/>
<polygon fill="black" stroke="black" points="437.5,-700.05 434,-690.05 430.5,-700.05 437.5,-700.05"/>
<text text-anchor="middle" x="470" y="-713.3" font-family="Times,serif" font-size="14.00">{DEF_USE}</text>
</g>
<!-- Node0x3385850 -->
<g id="node13" class="node"><title>Node0x3385850</title>
<polygon fill="none" stroke="black" points="1801,-744 1801,-780 1961,-780 1961,-744 1801,-744"/>
<text text-anchor="middle" x="1881" y="-758.3" font-family="Times,serif" font-size="14.00">%var = alloca i32, align 4</text>
</g>
<!-- Node0x3385850&#45;&gt;Node0x3385be0 -->
<g id="edge10" class="edge"><title>Node0x3385850&#45;&gt;Node0x3385be0</title>
<path fill="none" stroke="black" stroke-dasharray="1,5" d="M1894.74,-743.983C1904.63,-732.705 1918.85,-718.323 1934,-709 1943.6,-703.092 1954.29,-698.012 1965.09,-693.69"/>
<polygon fill="black" stroke="black" points="1966.48,-696.908 1974.58,-690.084 1963.99,-690.364 1966.48,-696.908"/>
<text text-anchor="middle" x="1970" y="-713.3" font-family="Times,serif" font-size="14.00">{DEF_USE}</text>
</g>
<!-- Node0x3385b70 -->
<g id="node14" class="node"><title>Node0x3385b70</title>
<polygon fill="none" stroke="black" points="1540,-654 1540,-690 1740,-690 1740,-654 1540,-654"/>
<text text-anchor="middle" x="1640" y="-668.3" font-family="Times,serif" font-size="14.00">%var1 = bitcast i32* %var to i8*</text>
</g>
<!-- Node0x3385850&#45;&gt;Node0x3385b70 -->
<g id="edge9" class="edge"><title>Node0x3385850&#45;&gt;Node0x3385b70</title>
<path fill="none" stroke="black" stroke-dasharray="1,5" d="M1800.97,-746.961C1777.03,-741.493 1751.04,-734.266 1728,-725 1708.83,-717.29 1688.89,-705.836 1672.85,-695.639"/>
<polygon fill="black" stroke="black" points="1674.67,-692.643 1664.37,-690.135 1670.86,-698.515 1674.67,-692.643"/>
<text text-anchor="middle" x="1764" y="-713.3" font-family="Times,serif" font-size="14.00">{DEF_USE}</text>
</g>
<!-- Node0x3385850&#45;&gt;Node0x3385c80 -->
<g id="edge11" class="edge"><title>Node0x3385850&#45;&gt;Node0x3385c80</title>
<path fill="none" stroke="black" stroke-dasharray="1,5" d="M1861.79,-743.778C1840.07,-722.133 1809.94,-684.055 1828,-653 1840.86,-630.878 1863.62,-615.17 1886.09,-604.319"/>
<polygon fill="black" stroke="black" points="1887.68,-607.438 1895.33,-600.106 1884.78,-601.068 1887.68,-607.438"/>
<text text-anchor="middle" x="1864" y="-668.3" font-family="Times,serif" font-size="14.00">{DEF_USE}</text>
</g>
<!-- Node0x3385c50 -->
<g id="node16" class="node"><title>Node0x3385c50</title>
<polygon fill="none" stroke="black" points="1870,-204 1870,-240 2092,-240 2092,-204 1870,-204"/>
<text text-anchor="middle" x="1981" y="-218.3" font-family="Times,serif" font-size="14.00">store i32 %conv2, i32* %var, align 4</text>
</g>
<!-- Node0x3385850&#45;&gt;Node0x3385c50 -->
<g id="edge12" class="edge"><title>Node0x3385850&#45;&gt;Node0x3385c50</title>
<path fill="none" stroke="black" stroke-dasharray="1,5" d="M1884.21,-743.658C1889.69,-719.305 1903.27,-675.446 1933,-653 1970.44,-624.733 2000.78,-664.805 2037,-635 2101.29,-582.102 2026,-531.255 2026,-448 2026,-448 2026,-448 2026,-311 2026,-288.059 2013.73,-265.078 2002,-248.356"/>
<polygon fill="black" stroke="black" points="2004.74,-246.179 1995.98,-240.216 1999.11,-250.339 2004.74,-246.179"/>
<text text-anchor="middle" x="2075" y="-488.3" font-family="Times,serif" font-size="14.00">{DEF_USE}</text>
</g>
<!-- Node0x3385850&#45;&gt;Node0x3385d80 -->
<g id="edge13" class="edge"><title>Node0x3385850&#45;&gt;Node0x3385d80</title>
<path fill="none" stroke="black" stroke-dasharray="1,5" d="M1961.05,-748.55C2028.96,-736.464 2119.46,-716.264 2146,-691 2167.28,-670.744 2166,-657.377 2166,-628 2166,-628 2166,-628 2166,-491 2166,-467.885 2156.08,-459.371 2167,-439 2173.64,-426.614 2184.49,-432.183 2193,-421 2210.96,-397.401 2215,-387.658 2215,-358 2215,-358 2215,-358 2215,-221 2215,-200.63 2215,-177.609 2215,-160.222"/>
<polygon fill="black" stroke="black" points="2218.5,-160.199 2215,-150.199 2211.5,-160.2 2218.5,-160.199"/>
<text text-anchor="middle" x="2203" y="-443.3" font-family="Times,serif" font-size="14.00">{DEF_USE}</text>
</g>
<!-- Node0x3385cf0 -->
<g id="node18" class="node"><title>Node0x3385cf0</title>
<polygon fill="none" stroke="black" points="891.5,-564 891.5,-600 1842.5,-600 1842.5,-564 891.5,-564"/>
<text text-anchor="middle" x="1367" y="-578.3" font-family="Times,serif" font-size="14.00">call void @llvm.var.annotation(i8* %var1, i8* getelementptr inbounds ([10 x i8]* @.str, i32 0, i32 0), i8* getelementptr inbounds ([6 x i8]* @.str1, i32 0, i32 0), i32 20)</text>
</g>
<!-- Node0x3385b70&#45;&gt;Node0x3385cf0 -->
<g id="edge14" class="edge"><title>Node0x3385b70&#45;&gt;Node0x3385cf0</title>
<path fill="none" stroke="black" stroke-dasharray="1,5" d="M1587.04,-653.928C1541.92,-639.386 1477.03,-618.466 1429.4,-603.114"/>
<polygon fill="black" stroke="black" points="1430.41,-599.761 1419.81,-600.024 1428.26,-606.423 1430.41,-599.761"/>
<text text-anchor="middle" x="1564" y="-623.3" font-family="Times,serif" font-size="14.00">{DEF_USE}</text>
</g>
<!-- Node0x3385a30 -->
<g id="node19" class="node"><title>Node0x3385a30</title>
<polygon fill="none" stroke="black" points="767,-474 767,-510 955,-510 955,-474 767,-474"/>
<text text-anchor="middle" x="861" y="-488.3" font-family="Times,serif" font-size="14.00">%conv = sitofp i32 %2 to float</text>
</g>
<!-- Node0x3385c80&#45;&gt;Node0x3385a30 -->
<g id="edge17" class="edge"><title>Node0x3385c80&#45;&gt;Node0x3385a30</title>
<path fill="none" stroke="black" stroke-dasharray="1,5" d="M1860.85,-564.313C1857.53,-563.845 1854.24,-563.405 1851,-563 1529.45,-522.811 1146.04,-503.892 965.207,-496.681"/>
<polygon fill="black" stroke="black" points="965.3,-493.182 955.17,-496.285 965.024,-500.177 965.3,-493.182"/>
<text text-anchor="middle" x="1726" y="-533.3" font-family="Times,serif" font-size="14.00">{DEF_USE}</text>
</g>
<!-- Node0x3385c50&#45;&gt;Node0x3385c80 -->
<g id="edge18" class="edge"><title>Node0x3385c50&#45;&gt;Node0x3385c80</title>
<path fill="none" stroke="black" stroke-dasharray="1,5" d="M1964.07,-240.245C1949.57,-256.907 1931,-283.588 1931,-311 1931,-493 1931,-493 1931,-493 1931,-513.759 1936.36,-536.604 1941.53,-553.813"/>
<polygon fill="black" stroke="black" points="1938.31,-555.257 1944.67,-563.732 1944.99,-553.142 1938.31,-555.257"/>
<text text-anchor="middle" x="1964.5" y="-398.3" font-family="Times,serif" font-size="14.00">{RAW} var</text>
</g>
<!-- Node0x3385c50&#45;&gt;Node0x3385d80 -->
<g id="edge19" class="edge"><title>Node0x3385c50&#45;&gt;Node0x3385d80</title>
<path fill="none" stroke="black" stroke-dasharray="1,5" d="M1995.52,-203.889C2006.33,-192.266 2022.09,-177.513 2039,-169 2062.24,-157.301 2089.03,-149.404 2114.58,-144.074"/>
<polygon fill="black" stroke="black" points="2115.54,-147.451 2124.67,-142.083 2114.19,-140.583 2115.54,-147.451"/>
<text text-anchor="middle" x="2072.5" y="-173.3" font-family="Times,serif" font-size="14.00">{RAW} var</text>
</g>
<!-- Node0x33865d0 -->
<g id="node20" class="node"><title>Node0x33865d0</title>
<polygon fill="none" stroke="black" points="2410,-24 2410,-60 2484,-60 2484,-24 2410,-24"/>
<text text-anchor="middle" x="2447" y="-38.3" font-family="Times,serif" font-size="14.00">ret i32 %4</text>
</g>
<!-- Node0x3385d80&#45;&gt;Node0x33865d0 -->
<g id="edge20" class="edge"><title>Node0x3385d80&#45;&gt;Node0x33865d0</title>
<path fill="none" stroke="black" stroke-dasharray="1,5" d="M2260.01,-113.928C2300.39,-98.6121 2359.41,-76.2226 2400.3,-60.7129"/>
<polygon fill="black" stroke="black" points="2401.66,-63.9416 2409.77,-57.1225 2399.18,-57.3966 2401.66,-63.9416"/>
<text text-anchor="middle" x="2388" y="-83.3" font-family="Times,serif" font-size="14.00">{DEF_USE}</text>
</g>
<!-- Node0x3385a30&#45;&gt;Node0x3386010 -->
<g id="edge21" class="edge"><title>Node0x3385a30&#45;&gt;Node0x3386010</title>
<path fill="none" stroke="black" stroke-dasharray="1,5" d="M843.021,-473.614C829.348,-460.391 810.362,-442.032 795.178,-427.348"/>
<polygon fill="black" stroke="black" points="797.253,-424.486 787.632,-420.05 792.387,-429.518 797.253,-424.486"/>
<text text-anchor="middle" x="860" y="-443.3" font-family="Times,serif" font-size="14.00">{DEF_USE}</text>
</g>
<!-- Node0x33864d0&#45;&gt;Node0x3385c50 -->
<g id="edge23" class="edge"><title>Node0x33864d0&#45;&gt;Node0x3385c50</title>
<path fill="none" stroke="black" stroke-dasharray="1,5" d="M1086.51,-301.873C1272.39,-285.483 1661.75,-251.15 1859.77,-233.69"/>
<polygon fill="black" stroke="black" points="1860.27,-237.159 1869.92,-232.794 1859.66,-230.186 1860.27,-237.159"/>
<text text-anchor="middle" x="1608" y="-263.3" font-family="Times,serif" font-size="14.00">{DEF_USE}</text>
</g>
<!-- Node0x3386640 -->
<g id="node22" class="node"><title>Node0x3386640</title>
<polygon fill="none" stroke="black" points="1642,-820 1642,-856 1768,-856 1768,-820 1642,-820"/>
<text text-anchor="middle" x="1705" y="-834.3" font-family="Times,serif" font-size="14.00">&lt;&lt;ENTRY&gt;&gt; main</text>
</g>
<!-- Node0x3386640&#45;&gt;Node0x33850a0 -->
<g id="edge24" class="edge"><title>Node0x3386640&#45;&gt;Node0x33850a0</title>
<path fill="none" stroke="black" d="M1768.1,-835.512C1898.64,-832.046 2194.36,-822.076 2293,-801 2311.07,-797.139 2330.21,-790.611 2346.91,-784.045"/>
<polygon fill="black" stroke="black" points="2348.48,-787.188 2356.44,-780.195 2345.86,-780.698 2348.48,-787.188"/>
</g>
<!-- Node0x3386640&#45;&gt;Node0x3385110 -->
<g id="edge27" class="edge"><title>Node0x3386640&#45;&gt;Node0x3385110</title>
<path fill="none" stroke="black" d="M1768.19,-835.835C1903.65,-832.912 2213.17,-823.8 2255,-801 2283.17,-785.641 2277.22,-767.451 2298,-743 2311.39,-727.244 2327.47,-710.601 2340.63,-697.498"/>
<polygon fill="black" stroke="black" points="2343.34,-699.741 2348,-690.226 2338.42,-694.759 2343.34,-699.741"/>
</g>
<!-- Node0x3386640&#45;&gt;Node0x3385770 -->
<g id="edge28" class="edge"><title>Node0x3386640&#45;&gt;Node0x3385770</title>
<path fill="none" stroke="black" d="M1641.71,-836.719C1465.13,-835.578 952.123,-829.831 527,-801 445.427,-795.468 422.695,-793.358 338.746,-781.21"/>
<polygon fill="black" stroke="black" points="339.159,-777.733 328.76,-779.76 338.153,-784.66 339.159,-777.733"/>
</g>
<!-- Node0x3386640&#45;&gt;Node0x3385ac0 -->
<g id="edge29" class="edge"><title>Node0x3386640&#45;&gt;Node0x3385ac0</title>
<path fill="none" stroke="black" d="M1641.74,-836.006C1489.87,-833.311 1092.73,-824.424 762,-801 675.978,-794.907 644.936,-821.873 569,-781 532.57,-761.391 542.598,-734.475 510,-709 503.146,-703.644 495.366,-698.831 487.462,-694.599"/>
<polygon fill="black" stroke="black" points="489.031,-691.47 478.529,-690.069 485.865,-697.713 489.031,-691.47"/>
</g>
<!-- Node0x3386640&#45;&gt;Node0x3385740 -->
<g id="edge32" class="edge"><title>Node0x3386640&#45;&gt;Node0x3385740</title>
<path fill="none" stroke="black" d="M1768.27,-833.529C1830.25,-829.19 1927.05,-819.9 2009,-801 2028.03,-796.611 2048.37,-790.057 2066.26,-783.622"/>
<polygon fill="black" stroke="black" points="2067.74,-786.806 2075.92,-780.074 2065.33,-780.235 2067.74,-786.806"/>
</g>
<!-- Node0x3386640&#45;&gt;Node0x3385be0 -->
<g id="edge33" class="edge"><title>Node0x3386640&#45;&gt;Node0x3385be0</title>
<path fill="none" stroke="black" d="M1768.15,-837.001C1825.45,-834.097 1909.93,-822.274 1970,-781 1999.1,-761.005 2018.95,-724.544 2029.88,-699.563"/>
<polygon fill="black" stroke="black" points="2033.13,-700.863 2033.76,-690.287 2026.67,-698.161 2033.13,-700.863"/>
</g>
<!-- Node0x3386640&#45;&gt;Node0x3385950 -->
<g id="edge36" class="edge"><title>Node0x3386640&#45;&gt;Node0x3385950</title>
<path fill="none" stroke="black" d="M1641.77,-837.085C1460.39,-836.929 940.689,-833.567 774,-801 754.736,-797.236 734.285,-790.505 716.6,-783.743"/>
<polygon fill="black" stroke="black" points="717.671,-780.404 707.084,-780.002 715.11,-786.919 717.671,-780.404"/>
</g>
<!-- Node0x3386640&#45;&gt;Node0x3386010 -->
<g id="edge37" class="edge"><title>Node0x3386640&#45;&gt;Node0x3386010</title>
<path fill="none" stroke="black" d="M1641.97,-836.837C1455.85,-836.011 917.085,-831.025 844,-801 735.833,-756.563 785.531,-746.512 758,-511 754.781,-483.464 759.212,-451.954 763.571,-430.105"/>
<polygon fill="black" stroke="black" points="767.017,-430.724 765.671,-420.215 760.17,-429.27 767.017,-430.724"/>
</g>
<!-- Node0x3386640&#45;&gt;Node0x33859c0 -->
<g id="edge25" class="edge"><title>Node0x3386640&#45;&gt;Node0x33859c0</title>
<path fill="none" stroke="black" d="M1641.94,-836.217C1414.96,-833.237 647.286,-821.719 539,-801 519.721,-797.311 499.267,-790.596 481.584,-783.826"/>
<polygon fill="black" stroke="black" points="482.657,-780.486 472.07,-780.077 480.091,-786.999 482.657,-780.486"/>
</g>
<!-- Node0x3386640&#45;&gt;Node0x3385850 -->
<g id="edge26" class="edge"><title>Node0x3386640&#45;&gt;Node0x3385850</title>
<path fill="none" stroke="black" d="M1745.82,-819.837C1771.25,-809.143 1804.15,-795.31 1831.13,-783.969"/>
<polygon fill="black" stroke="black" points="1832.54,-787.172 1840.4,-780.07 1829.83,-780.72 1832.54,-787.172"/>
</g>
<!-- Node0x3386640&#45;&gt;Node0x3385b70 -->
<g id="edge30" class="edge"><title>Node0x3386640&#45;&gt;Node0x3385b70</title>
<path fill="none" stroke="black" d="M1698.17,-819.759C1686.82,-791.14 1664.03,-733.626 1650.59,-699.717"/>
<polygon fill="black" stroke="black" points="1653.68,-698.017 1646.74,-690.01 1647.17,-700.596 1653.68,-698.017"/>
</g>
<!-- Node0x3386640&#45;&gt;Node0x3385c80 -->
<g id="edge34" class="edge"><title>Node0x3386640&#45;&gt;Node0x3385c80</title>
<path fill="none" stroke="black" d="M1713.45,-819.885C1736.6,-773.593 1801.74,-647.477 1838,-619 1845.45,-613.148 1853.88,-608.237 1862.68,-604.118"/>
<polygon fill="black" stroke="black" points="1864.18,-607.283 1871.97,-600.105 1861.4,-600.857 1864.18,-607.283"/>
</g>
<!-- Node0x3386640&#45;&gt;Node0x3385c50 -->
<g id="edge39" class="edge"><title>Node0x3386640&#45;&gt;Node0x3385c50</title>
<path fill="none" stroke="black" d="M1768.17,-834.029C1898.27,-827.359 2186.84,-809.506 2221,-781 2259.44,-748.924 2253,-723.063 2253,-673 2253,-673 2253,-673 2253,-356 2253,-283.832 2174.77,-250.818 2102.22,-235.719"/>
<polygon fill="black" stroke="black" points="2102.51,-232.21 2092.03,-233.705 2101.16,-239.077 2102.51,-232.21"/>
</g>
<!-- Node0x3386640&#45;&gt;Node0x3385d80 -->
<g id="edge40" class="edge"><title>Node0x3386640&#45;&gt;Node0x3385d80</title>
<path fill="none" stroke="black" d="M1768.05,-836.617C1944.47,-834.979 2433.82,-826.353 2489,-781 2511.7,-762.347 2509,-747.377 2509,-718 2509,-718 2509,-718 2509,-221 2509,-179.552 2400.4,-155.98 2315.21,-143.865"/>
<polygon fill="black" stroke="black" points="2315.59,-140.385 2305.21,-142.479 2314.63,-147.319 2315.59,-140.385"/>
</g>
<!-- Node0x3386640&#45;&gt;Node0x3385cf0 -->
<g id="edge31" class="edge"><title>Node0x3386640&#45;&gt;Node0x3385cf0</title>
<path fill="none" stroke="black" d="M1682.3,-819.94C1623.39,-775.673 1465.56,-657.065 1398.18,-606.433"/>
<polygon fill="black" stroke="black" points="1400.15,-603.53 1390.05,-600.32 1395.94,-609.126 1400.15,-603.53"/>
</g>
<!-- Node0x3386640&#45;&gt;Node0x3385a30 -->
<g id="edge35" class="edge"><title>Node0x3386640&#45;&gt;Node0x3385a30</title>
<path fill="none" stroke="black" d="M1641.95,-835.942C1450.06,-832.511 884.133,-820.761 850,-801 832.713,-790.992 826,-782.975 826,-763 826,-763 826,-763 826,-581 826,-558.942 835.612,-535.836 844.762,-518.838"/>
<polygon fill="black" stroke="black" points="847.846,-520.494 849.733,-510.068 841.757,-517.042 847.846,-520.494"/>
</g>
<!-- Node0x3386640&#45;&gt;Node0x33865d0 -->
<g id="edge41" class="edge"><title>Node0x3386640&#45;&gt;Node0x33865d0</title>
<path fill="none" stroke="black" d="M1768.17,-835.967C1922.99,-833.108 2318.17,-823.748 2448,-801 2496.88,-792.435 2553,-812.629 2553,-763 2553,-763 2553,-763 2553,-131 2553,-97.7633 2521.77,-74.6803 2493.21,-60.5209"/>
<polygon fill="black" stroke="black" points="2494.61,-57.3139 2484.07,-56.2358 2491.64,-63.6513 2494.61,-57.3139"/>
</g>
<!-- Node0x3386640&#45;&gt;Node0x33864d0 -->
<g id="edge38" class="edge"><title>Node0x3386640&#45;&gt;Node0x33864d0</title>
<path fill="none" stroke="black" d="M1641.79,-834.741C1446.2,-827.338 864,-802.025 864,-763 864,-763 864,-763 864,-626 864,-596.88 860.885,-583.054 882,-563 907.797,-538.499 936.26,-571.499 960,-545 1011.22,-487.826 999.173,-388.033 989.487,-340.149"/>
<polygon fill="black" stroke="black" points="992.876,-339.26 987.358,-330.216 986.032,-340.727 992.876,-339.26"/>
</g>
<!-- Node0x3386100 -->
<g id="node23" class="node"><title>Node0x3386100</title>
<polygon fill="none" stroke="black" points="2702,-820 2702,-856 3028,-856 3028,-820 2702,-820"/>
<text text-anchor="middle" x="2865" y="-834.3" font-family="Times,serif" font-size="14.00">GLOBAL_VALUE:@gtest_1 = global i32 2016, align 4</text>
</g>
<!-- Node0x33866b0 -->
<g id="node24" class="node"><title>Node0x33866b0</title>
<polygon fill="none" stroke="black" points="3046,-820 3046,-856 3372,-856 3372,-820 3046,-820"/>
<text text-anchor="middle" x="3209" y="-834.3" font-family="Times,serif" font-size="14.00">GLOBAL_VALUE:@gtest_2 = global i32 2015, align 4</text>
</g>
<!-- Node0x3386720 -->
<g id="node25" class="node"><title>Node0x3386720</title>
<polygon fill="none" stroke="black" points="3390,-820 3390,-856 3716,-856 3716,-820 3390,-820"/>
<text text-anchor="middle" x="3553" y="-834.3" font-family="Times,serif" font-size="14.00">GLOBAL_VALUE:@gtest_3 = global i32 2014, align 4</text>
</g>
</g>
</svg>
